<svg width="34" height="28" viewBox="0 0 34 28" fill="none" xmlns="http://www.w3.org/2000/svg">
<path d="M14.1919 0.411221C13.5696 0.407705 13.1641 0.824658 12.9189 1.18404C12.6737 1.54352 12.5142 1.93832 12.384 2.32064C12.282 2.62035 12.2019 2.91391 12.1414 3.16193H13.7788C13.8102 3.05277 13.8438 2.94177 13.8816 2.83059C13.9858 2.52473 14.1195 2.23152 14.2258 2.07561C14.2696 2.01144 14.2831 2.00125 14.2884 1.99387L19.7091 2.02349C19.7147 2.03087 19.7311 2.04326 19.7763 2.10874C19.8825 2.26299 20.0154 2.55171 20.1194 2.85291C20.1552 2.95662 20.1869 3.05998 20.217 3.16193H21.8567C21.796 2.91821 21.7163 2.63063 21.615 2.3369C21.4845 1.95897 21.3246 1.56786 21.0792 1.21155C20.8338 0.855156 20.4326 0.445146 19.8168 0.441894L14.1918 0.411133L14.1919 0.411221ZM2.9375 4.74396C2.49805 4.74396 1.96631 4.98804 1.56315 5.3911C1.16009 5.79426 0.916016 6.326 0.916016 6.76545V8.63532L6.17328 16.5213H7.29459V15.1151H11.6891V16.5213H21.834V15.1151H26.2285V16.5213H27.8267L33.084 8.63532V6.76545C33.084 6.326 32.8399 5.79426 32.4368 5.3911C32.0337 4.98804 31.502 4.74396 31.0625 4.74396H2.9375ZM0.916016 11.4874V25.0467C0.916016 25.4862 1.16009 26.0179 1.56315 26.421C1.96631 26.8241 2.49805 27.0682 2.9375 27.0682H31.0625C31.502 27.0682 32.0337 26.8241 32.4368 26.421C32.8399 26.0179 33.084 25.4862 33.084 25.0467V11.4874L28.6733 18.1033H26.2285V21.7234H21.834V18.1033H11.6891V21.7234H7.29459V18.1033H5.32672L0.916016 11.4874ZM8.87662 16.6971V20.1413H10.1071V16.6971H8.87662ZM23.416 16.6971V20.1413H24.6465V16.6971H23.416Z" fill="white"/>
</svg>
