<svg width="42" height="27" viewBox="0 0 42 27" fill="none" xmlns="http://www.w3.org/2000/svg">
<path d="M31.982 1.05992C26.4496 -0.0955757 26.4167 3.87594 21.0072 3.87594C16.327 3.87594 16.1515 -0.0505757 10.0323 1.05992C0.0123487 2.87152 -1.52811 24.917 3.78751 26.0723C6.73871 26.7134 8.22555 23.2911 12.1275 20.8346C12.7067 21.2628 13.3796 21.5467 14.0904 21.6629C14.8013 21.7791 15.5296 21.7241 16.215 21.5026C16.9004 21.2811 17.5231 20.8994 18.0315 20.3892C18.5399 19.879 18.9194 19.255 19.1385 18.5688C19.7593 18.515 20.3822 18.4883 21.0053 18.4888C21.6615 18.4888 22.2744 18.5169 22.8621 18.5677C23.0817 19.254 23.4618 19.878 23.9709 20.388C24.4799 20.898 25.1032 21.2793 25.7891 21.5003C26.4749 21.7213 27.2036 21.7756 27.9146 21.6587C28.6256 21.5417 29.2985 21.257 29.8775 20.828C33.7842 23.2846 35.2711 26.7105 38.2232 26.0686C43.5379 24.9169 41.9581 3.14275 31.982 1.05992ZM11.4612 12.3313H9.16343V9.99488H6.82589V7.69716H9.16326V5.35988H11.4611V7.69619H13.7974V9.99401H11.4611V12.3303L11.4612 12.3313ZM14.8207 20.2076C14.2238 20.2076 13.6404 20.0306 13.1441 19.699C12.6478 19.3673 12.2611 18.896 12.0327 18.3446C11.8043 17.7932 11.7445 17.1864 11.861 16.601C11.9774 16.0156 12.2648 15.4779 12.6869 15.0558C13.1089 14.6338 13.6467 14.3464 14.2321 14.23C14.8175 14.1135 15.4242 14.1733 15.9757 14.4017C16.5271 14.6301 16.9984 15.0169 17.33 15.5132C17.6616 16.0095 17.8386 16.5929 17.8386 17.1898C17.8388 17.9901 17.5211 18.7578 16.9553 19.3239C16.3896 19.89 15.6221 20.2082 14.8217 20.2085L14.8207 20.2076ZM27.1783 20.2076C26.5815 20.2071 25.9983 20.0296 25.5023 19.6976C25.0064 19.3656 24.62 18.8941 24.392 18.3425C24.1641 17.791 24.1048 17.1843 24.2216 16.599C24.3384 16.0138 24.6261 15.4763 25.0484 15.0546C25.4707 14.6328 26.0085 14.3458 26.5939 14.2296C27.1792 14.1135 27.7859 14.1736 28.3372 14.4022C28.8884 14.6309 29.3595 15.0178 29.6909 15.5142C30.0223 16.0105 30.199 16.594 30.1988 17.1908C30.1988 17.5873 30.1207 17.9799 29.9688 18.3462C29.817 18.7126 29.5944 19.0453 29.3139 19.3256C29.0334 19.6059 28.7004 19.8281 28.3339 19.9796C27.9675 20.1311 27.5747 20.2088 27.1782 20.2085L27.1783 20.2076ZM29.26 10.3675C28.9588 10.3676 28.6644 10.2783 28.414 10.1111C28.1636 9.94378 27.9684 9.706 27.8531 9.42778C27.7379 9.14956 27.7077 8.84341 27.7664 8.54804C27.8252 8.25268 27.9702 7.98137 28.1831 7.76842C28.3961 7.55547 28.6674 7.41046 28.9627 7.35172C29.2581 7.29298 29.5643 7.32316 29.8425 7.43843C30.1207 7.5537 30.3585 7.74888 30.5258 7.9993C30.693 8.24972 30.7823 8.54412 30.7822 8.84527C30.7822 9.04521 30.7429 9.2432 30.6663 9.42792C30.5898 9.61264 30.4777 9.78049 30.3363 9.92187C30.1949 10.0632 30.0271 10.1754 29.8424 10.2519C29.6576 10.3284 29.4597 10.3678 29.2597 10.3678L29.26 10.3675ZM32.5575 13.6652C32.2563 13.6652 31.962 13.5759 31.7116 13.4087C31.4612 13.2414 31.266 13.0036 31.1508 12.7254C31.0355 12.4472 31.0053 12.1411 31.0641 11.8457C31.1228 11.5504 31.2678 11.2791 31.4807 11.0661C31.6936 10.8532 31.9649 10.7082 32.2603 10.6494C32.5556 10.5906 32.8617 10.6208 33.1399 10.736C33.4181 10.8512 33.6559 11.0464 33.8233 11.2967C33.9906 11.5471 34.0799 11.8415 34.0799 12.1426C34.08 12.3429 34.0406 12.5413 33.9639 12.7264C33.8872 12.9115 33.7748 13.0796 33.633 13.2211C33.4912 13.3626 33.3229 13.4748 33.1377 13.5511C32.9525 13.6275 32.754 13.6666 32.5537 13.6661L32.5575 13.6652ZM32.5575 7.06918C32.2563 7.0692 31.962 6.97992 31.7116 6.81263C31.4612 6.64534 31.266 6.40756 31.1508 6.12936C31.0355 5.85115 31.0053 5.54502 31.0641 5.24967C31.1228 4.95433 31.2678 4.68303 31.4807 4.47009C31.6937 4.25715 31.965 4.11214 32.2603 4.05338C32.5557 3.99463 32.8618 4.02477 33.14 4.14001C33.4182 4.25524 33.656 4.45039 33.8233 4.70077C33.9906 4.95115 34.0799 5.24552 34.0799 5.54665C34.08 5.74698 34.0406 5.94536 33.9639 6.13042C33.8872 6.31549 33.7747 6.4836 33.633 6.62512C33.4912 6.76664 33.3229 6.87879 33.1377 6.95514C32.9525 7.03149 32.754 7.07054 32.5537 7.07006L32.5575 7.06918ZM35.8549 10.3667C35.5538 10.3667 35.2594 10.2774 35.0091 10.1101C34.7587 9.94277 34.5635 9.70498 34.4483 9.42678C34.3331 9.14857 34.3029 8.84244 34.3617 8.5471C34.4204 8.25176 34.5654 7.98047 34.7783 7.76754C34.9913 7.55461 35.2626 7.4096 35.5579 7.35086C35.8532 7.29211 36.1594 7.32226 36.4376 7.4375C36.7158 7.55273 36.9536 7.74788 37.1209 7.99826C37.2882 8.24864 37.3775 8.543 37.3775 8.84413C37.3776 9.04448 37.3382 9.24288 37.2615 9.42797C37.1848 9.61306 37.0723 9.78118 36.9305 9.92272C36.7887 10.0642 36.6204 10.1764 36.4351 10.2528C36.2499 10.3291 36.0514 10.3681 35.8511 10.3676L35.8549 10.3667Z" fill="white"/>
</svg>
