<svg width="42" height="41" viewBox="0 0 42 41" fill="none" xmlns="http://www.w3.org/2000/svg">
<path d="M12.8437 0.90918L8.48428 3.81309L0.898438 32.2686L32.6542 40.0908L41.1005 8.80176L35.2733 7.17578L33.12 15.209L23.8915 12.7393L22.5995 17.5908C23.9354 18.4434 24.5595 20.0693 24.1552 21.5986C23.6366 23.5498 21.6327 24.7012 19.6903 24.1826C17.7479 23.6641 16.5966 21.6602 17.1151 19.7178C17.5282 18.1709 18.8905 17.0723 20.4901 17.0107C20.6747 17.002 20.8681 17.0107 21.0526 17.0371L22.3095 12.3086L12.202 9.60156L12.413 8.81055L14.4169 1.34775L12.8437 0.90918ZM15.911 1.59297L14.206 8.44141L31.9686 13.1963L33.6737 6.35225L15.911 1.59297ZM4.68037 27.1445L32.1093 33.71L31.7226 35.3096L4.29717 28.7441L4.68037 27.1445Z" fill="white"/>
</svg>
