<svg width="39" height="42" viewBox="0 0 39 42" fill="none" xmlns="http://www.w3.org/2000/svg">
<path d="M14.2505 0.00537109C13.5219 0.00537109 13.003 0.452998 12.6764 0.898604C12.3501 1.34421 12.1462 1.82075 12.1462 2.3764C12.1462 2.93213 12.3361 3.41992 12.6444 3.90859C12.9529 4.39727 13.4449 4.9501 14.2506 4.9501H14.2329L14.8156 4.96258V15.6854C10.2693 21.4747 1.4387 32.7607 1.4387 32.7607L1.40337 32.8058L1.3748 32.8552C0.926563 33.6293 0.494141 34.7055 0.494141 35.9872C0.494141 39.1099 3.08516 41.6849 6.19183 41.685H32.5239C35.6223 41.685 38.2216 39.1435 38.2216 35.9872C38.2216 34.5549 37.5971 33.4713 37.2375 32.8537L37.2082 32.8031L23.9005 15.9907V4.96205C24.1287 4.95625 24.1696 4.95027 24.4573 4.9501H24.4651C25.2709 4.9501 25.763 4.39709 26.0714 3.90859C26.1713 3.75004 26.2533 3.59069 26.3259 3.43003L26.4489 3.30725H26.3774C26.4962 3.01088 26.5695 2.70607 26.5695 2.37631C26.5695 1.82084 26.3659 1.34412 26.0394 0.898604C25.7129 0.452998 25.1939 0.00537109 24.4651 0.00537109H14.2504H14.2505ZM14.2505 1.64787H24.4653C24.4571 1.64787 24.5796 1.68505 24.7146 1.86936C24.8496 2.05357 24.9273 2.35205 24.9273 2.37648C24.9273 2.40074 24.8356 2.78922 24.6825 3.0318C24.5299 3.2735 24.3818 3.30707 24.465 3.30733C23.8642 3.30733 23.3999 3.32465 23.208 3.33238V3.31419H14.6872V3.31683L14.2596 3.3076H14.2506C14.336 3.3076 14.1867 3.27446 14.0335 3.03188C13.8806 2.78931 13.7888 2.40083 13.7888 2.37648C13.7888 2.35223 13.8664 2.05375 14.0015 1.86936C14.1365 1.68522 14.259 1.64805 14.2507 1.64805L14.2505 1.64787ZM16.4579 4.9566H22.2583V11.5546H22.2545V16.1685L22.2584 16.1736V16.5623L35.8433 33.7251C36.1868 34.3173 36.5792 35.0523 36.5792 35.9872C36.5792 38.2425 34.7256 40.0424 32.5241 40.0424H6.19209C3.99896 40.0423 2.13682 38.1952 2.13682 35.9872C2.13682 35.6746 2.17461 35.3752 2.23754 35.0921L2.24237 35.0995C2.30864 34.7942 2.40453 34.5152 2.51343 34.2634L2.49814 34.2846C2.584 34.0807 2.67831 33.8895 2.77675 33.7164C2.83546 33.6414 11.8103 22.1709 16.2827 16.4763L16.4581 16.253V16.1515C16.4601 16.1489 16.4642 16.1438 16.4662 16.1411V11.5546H16.4581V4.9566H16.4579ZM18.1085 11.5546V16.7065L17.9336 16.9295C14.9368 20.7539 4.25964 34.4964 4.18212 34.5961C3.97294 34.9655 3.78837 35.4478 3.78837 35.9863C3.78837 37.3229 4.91952 38.4455 6.24034 38.4455H32.5192C33.8485 38.4455 34.9712 37.3569 34.9712 35.9863C34.9712 35.4345 34.7405 34.9954 34.5139 34.6033L20.6117 16.7324V11.5545H18.1086L18.1085 11.5546ZM17.7527 22.0777C19.5997 22.0777 21.1145 23.5926 21.1145 25.4395C21.1145 27.2867 19.5997 28.8016 17.7527 28.8016C15.9057 28.8016 14.3907 27.2867 14.3907 25.4398C14.3907 23.5927 15.9057 22.0777 17.7527 22.0777ZM17.7527 23.7204C16.7935 23.7204 16.0334 24.4804 16.0334 25.4395C16.0334 26.3988 16.7936 27.159 17.7527 27.159C18.7119 27.159 19.4721 26.399 19.4721 25.4396C19.4721 24.4804 18.7118 23.7202 17.7527 23.7202V23.7204ZM12.4535 28.5383C14.3005 28.5383 15.8155 30.0532 15.8155 31.9003C15.8155 33.7474 14.3005 35.2623 12.4535 35.2623C10.6065 35.2623 9.09151 33.7472 9.09151 31.9002C9.09151 30.0532 10.6065 28.5383 12.4535 28.5383ZM20.9458 29.4796C23.1135 29.4796 24.8884 31.2547 24.8884 33.4224C24.8884 35.5902 23.1134 37.365 20.9458 37.365C18.7781 37.365 17.003 35.5901 17.003 33.4224C17.003 31.2547 18.7781 29.4796 20.9458 29.4796ZM12.4535 30.1809C11.4944 30.1809 10.7342 30.9412 10.7342 31.9003C10.7342 32.8595 11.4944 33.6197 12.4535 33.6197C13.4127 33.6197 14.1729 32.8596 14.1729 31.9003C14.1729 30.9411 13.4127 30.1809 12.4535 30.1809ZM20.9458 31.1223C19.6659 31.1223 18.6457 32.1425 18.6457 33.4224C18.6457 34.7023 19.6659 35.7225 20.9458 35.7225C22.2258 35.7225 23.2459 34.7025 23.2459 33.4224C23.2459 32.1425 22.2257 31.1223 20.9458 31.1223Z" fill="white"/>
</svg>
