<svg width="22" height="15" viewBox="0 0 22 15" fill="none" xmlns="http://www.w3.org/2000/svg">
<path d="M10.9996 0.421875C8.17539 0.421875 5.152 2.22141 3.12719 4.06219C1.4898 5.55075 0.374594 6.98531 -0.0078125 7.5C0.374594 8.01469 1.4898 9.44925 3.12719 10.9378C5.15195 12.7786 8.17539 14.5781 10.9996 14.5781C13.8238 14.5781 16.8472 12.7786 18.872 10.9378C20.5094 9.44925 21.6246 8.01469 22.007 7.5C21.6246 6.98531 20.5094 5.55075 18.872 4.06219C16.8473 2.22141 13.8238 0.421875 10.9996 0.421875ZM10.9996 1.5C12.0439 1.50165 13.0697 1.77582 13.9755 2.29542C13.543 2.45389 13.1696 2.74128 12.9057 3.11876C12.6417 3.49625 12.5 3.94564 12.4996 4.40625C12.4999 4.41333 12.5003 4.42041 12.5007 4.42748C12.1614 4.26064 11.7967 4.15168 11.4215 4.10513V3H10.5777V4.10513C9.02927 4.29708 7.79664 5.52966 7.60473 7.07812H6.49961V7.92188H7.60473C7.79669 9.47034 9.02927 10.703 10.5777 10.8949V12H11.4215V10.8949C12.97 10.7029 14.2026 9.47034 14.3945 7.92188H15.4996V7.07812H14.3945C14.3746 6.91967 14.3436 6.76281 14.3017 6.60872C14.449 6.63951 14.5991 6.65543 14.7496 6.65625C15.1366 6.65568 15.5169 6.55531 15.8537 6.36485C16.1906 6.17439 16.4726 5.90028 16.6726 5.56898C16.8866 6.1904 16.9971 6.84276 16.9996 7.5C16.9996 9.0913 16.3675 10.6174 15.2423 11.7426C14.117 12.8679 12.5909 13.5 10.9996 13.5C9.40831 13.5 7.88219 12.8679 6.75697 11.7426C5.63175 10.6174 4.99961 9.0913 4.99961 7.5C4.99961 5.9087 5.63175 4.38258 6.75697 3.25736C7.88219 2.13214 9.40831 1.5 10.9996 1.5ZM10.5777 4.95647V6H11.4215V4.95647C12.5107 5.13422 13.3654 5.98889 13.5431 7.07812H12.4996V7.92188H13.5431C13.3654 9.01111 12.5107 9.86578 11.4215 10.0435V9H10.5777V10.0435C9.4885 9.86578 8.63383 9.01111 8.45608 7.92188H9.49961V7.07812H8.45608C8.63383 5.98889 9.4885 5.13422 10.5777 4.95647Z" fill="#D1FD0A"/>
</svg>
