<?xml version="1.0" standalone="no"?>
<!DOCTYPE svg PUBLIC "-//W3C//DTD SVG 20010904//EN"
 "http://www.w3.org/TR/2001/REC-SVG-20010904/DTD/svg10.dtd">
<svg version="1.0" xmlns="http://www.w3.org/2000/svg"
 width="640.000000pt" height="640.000000pt" viewBox="0 0 640.000000 640.000000"
 preserveAspectRatio="xMidYMid meet">
<metadata>
Created by potrace 1.14, written by Peter Selinger 2001-2017
</metadata>
<g transform="translate(0.000000,640.000000) scale(0.100000,-0.100000)"
fill="#000000" stroke="none">
<path d="M3070 5600 c0 -5 5 -10 11 -10 5 0 7 5 4 10 -3 6 -8 10 -11 10 -2 0
-4 -4 -4 -10z"/>
<path d="M3595 5489 c-4 -6 -5 -12 -2 -15 2 -3 7 2 10 11 7 17 1 20 -8 4z"/>
<path d="M2989 5443 c-13 -16 -12 -17 4 -4 9 7 17 15 17 17 0 8 -8 3 -21 -13z"/>
<path d="M3220 5400 c-9 -6 -10 -10 -3 -10 6 0 15 5 18 10 8 12 4 12 -15 0z"/>
<path d="M3433 5395 c0 -8 4 -12 9 -9 5 3 6 10 3 15 -9 13 -12 11 -12 -6z"/>
<path d="M3395 5389 c-4 -6 -5 -12 -2 -15 2 -3 7 2 10 11 7 17 1 20 -8 4z"/>
<path d="M3510 5358 c0 -4 4 -8 9 -8 6 0 12 4 15 8 3 5 -1 9 -9 9 -8 0 -15 -4
-15 -9z"/>
<path d="M3676 5362 c-3 -5 1 -9 9 -9 8 0 12 4 9 9 -3 4 -7 8 -9 8 -2 0 -6 -4
-9 -8z"/>
<path d="M3755 5361 c-3 -5 -2 -12 3 -15 5 -3 9 1 9 9 0 17 -3 19 -12 6z"/>
<path d="M3295 5351 c-3 -5 -2 -12 3 -15 5 -3 9 1 9 9 0 17 -3 19 -12 6z"/>
<path d="M3413 5345 c0 -8 4 -12 9 -9 5 3 6 10 3 15 -9 13 -12 11 -12 -6z"/>
<path d="M3006 5338 c3 -5 10 -6 15 -3 13 9 11 12 -6 12 -8 0 -12 -4 -9 -9z"/>
<path d="M3054 5342 c4 -3 14 -7 22 -8 9 -1 13 0 10 4 -4 3 -14 7 -22 8 -9 1
-13 0 -10 -4z"/>
<path d="M3174 5336 c1 -8 5 -18 8 -22 4 -3 5 1 4 10 -1 8 -5 18 -8 22 -4 3
-5 -1 -4 -10z"/>
<path d="M3256 5342 c-2 -4 -1 -14 4 -22 7 -11 9 -9 7 8 -1 24 -3 26 -11 14z"/>
<path d="M3579 5348 c-5 -18 -6 -38 -1 -34 7 8 12 36 6 36 -2 0 -4 -1 -5 -2z"/>
<path d="M2160 5320 c-9 -6 -10 -10 -3 -10 6 0 15 5 18 10 8 12 4 12 -15 0z"/>
<path d="M2850 5319 c0 -5 5 -7 10 -4 6 3 10 8 10 11 0 2 -4 4 -10 4 -5 0 -10
-5 -10 -11z"/>
<path d="M3106 5322 c-3 -5 1 -9 9 -9 8 0 12 4 9 9 -3 4 -7 8 -9 8 -2 0 -6 -4
-9 -8z"/>
<path d="M3353 5315 c0 -8 4 -12 9 -9 4 3 8 9 8 15 0 5 -4 9 -8 9 -5 0 -9 -7
-9 -15z"/>
<path d="M3450 5319 c0 -5 5 -7 10 -4 6 3 10 8 10 11 0 2 -4 4 -10 4 -5 0 -10
-5 -10 -11z"/>
<path d="M2794 5302 c4 -3 14 -7 22 -8 9 -1 13 0 10 4 -4 3 -14 7 -22 8 -9 1
-13 0 -10 -4z"/>
<path d="M3634 5302 c4 -3 14 -7 22 -8 9 -1 13 0 10 4 -4 3 -14 7 -22 8 -9 1
-13 0 -10 -4z"/>
<path d="M3695 5299 c-3 -4 2 -6 10 -5 21 3 28 13 10 13 -9 0 -18 -4 -20 -8z"/>
<path d="M3235 5289 c-4 -6 -5 -12 -2 -15 2 -3 7 2 10 11 7 17 1 20 -8 4z"/>
<path d="M2693 5271 c0 -11 5 -18 9 -15 4 3 5 11 1 19 -7 21 -12 19 -10 -4z"/>
<path d="M2975 5260 c-3 -5 -1 -10 4 -10 6 0 11 5 11 10 0 6 -2 10 -4 10 -3 0
-8 -4 -11 -10z"/>
<path d="M3135 5260 c-3 -5 -1 -10 4 -10 6 0 11 5 11 10 0 6 -2 10 -4 10 -3 0
-8 -4 -11 -10z"/>
<path d="M3714 5262 c4 -3 14 -7 22 -8 9 -1 13 0 10 4 -4 3 -14 7 -22 8 -9 1
-13 0 -10 -4z"/>
<path d="M3229 5243 c-13 -16 -12 -17 4 -4 9 7 17 15 17 17 0 8 -8 3 -21 -13z"/>
<path d="M3354 5246 c1 -8 5 -18 8 -22 4 -3 5 1 4 10 -1 8 -5 18 -8 22 -4 3
-5 -1 -4 -10z"/>
<path d="M3389 5243 c-13 -16 -12 -17 4 -4 9 7 17 15 17 17 0 8 -8 3 -21 -13z"/>
<path d="M2525 5240 c-3 -6 1 -7 9 -4 18 7 21 14 7 14 -6 0 -13 -4 -16 -10z"/>
<path d="M2747 5239 c7 -7 15 -10 18 -7 3 3 -2 9 -12 12 -14 6 -15 5 -6 -5z"/>
<path d="M2790 5241 c0 -6 4 -13 10 -16 6 -3 7 1 4 9 -7 18 -14 21 -14 7z"/>
<path d="M2395 5231 c-3 -5 -2 -12 3 -15 5 -3 9 1 9 9 0 17 -3 19 -12 6z"/>
<path d="M2579 5228 c-5 -18 -6 -38 -1 -34 7 8 12 36 6 36 -2 0 -4 -1 -5 -2z"/>
<path d="M2693 5215 c0 -8 4 -12 9 -9 5 3 6 10 3 15 -9 13 -12 11 -12 -6z"/>
<path d="M3810 5220 c0 -5 5 -10 11 -10 5 0 7 5 4 10 -3 6 -8 10 -11 10 -2 0
-4 -4 -4 -10z"/>
<path d="M3926 5222 c-3 -5 1 -9 9 -9 8 0 12 4 9 9 -3 4 -7 8 -9 8 -2 0 -6 -4
-9 -8z"/>
<path d="M2235 5209 c-4 -6 -5 -12 -2 -15 2 -3 7 2 10 11 7 17 1 20 -8 4z"/>
<path d="M3255 5209 c-4 -6 -5 -12 -2 -15 2 -3 7 2 10 11 7 17 1 20 -8 4z"/>
<path d="M3296 5207 c3 -10 9 -15 12 -12 3 3 0 11 -7 18 -10 9 -11 8 -5 -6z"/>
<path d="M3584 5198 l-19 -23 23 19 c21 18 27 26 19 26 -2 0 -12 -10 -23 -22z"/>
<path d="M2286 5202 c-3 -5 1 -9 9 -9 8 0 12 4 9 9 -3 4 -7 8 -9 8 -2 0 -6 -4
-9 -8z"/>
<path d="M2534 5196 c1 -8 5 -18 8 -22 4 -3 5 1 4 10 -1 8 -5 18 -8 22 -4 3
-5 -1 -4 -10z"/>
<path d="M2839 5193 c-13 -16 -12 -17 4 -4 16 13 21 21 13 21 -2 0 -10 -8 -17
-17z"/>
<path d="M2990 5196 c7 -7 13 -7 20 0 6 6 3 10 -10 10 -13 0 -16 -4 -10 -10z"/>
<path d="M3114 5202 c4 -3 14 -7 22 -8 9 -1 13 0 10 4 -4 3 -14 7 -22 8 -9 1
-13 0 -10 -4z"/>
<path d="M3176 5193 c-6 -14 -5 -15 5 -6 7 7 10 15 7 18 -3 3 -9 -2 -12 -12z"/>
<path d="M3530 5201 c0 -6 4 -13 10 -16 6 -3 7 1 4 9 -7 18 -14 21 -14 7z"/>
<path d="M3979 5208 c-5 -18 -6 -38 -1 -34 7 8 12 36 6 36 -2 0 -4 -1 -5 -2z"/>
<path d="M3473 5185 c0 -8 4 -12 9 -9 5 3 6 10 3 15 -9 13 -12 11 -12 -6z"/>
<path d="M2435 5180 c-3 -5 -1 -10 4 -10 6 0 11 5 11 10 0 6 -2 10 -4 10 -3 0
-8 -4 -11 -10z"/>
<path d="M2695 5180 c3 -5 8 -10 11 -10 2 0 4 5 4 10 0 6 -5 10 -11 10 -5 0
-7 -4 -4 -10z"/>
<path d="M3890 5179 c0 -5 5 -7 10 -4 6 3 10 8 10 11 0 2 -4 4 -10 4 -5 0 -10
-5 -10 -11z"/>
<path d="M2995 5171 c-3 -5 -2 -12 3 -15 5 -3 9 1 9 9 0 17 -3 19 -12 6z"/>
<path d="M3334 5160 c0 -13 4 -16 10 -10 7 7 7 13 0 20 -6 6 -10 3 -10 -10z"/>
<path d="M3414 5160 c0 -13 4 -16 10 -10 7 7 7 13 0 20 -6 6 -10 3 -10 -10z"/>
<path d="M3516 5158 c3 -5 10 -6 15 -3 13 9 11 12 -6 12 -8 0 -12 -4 -9 -9z"/>
<path d="M3575 5160 c-3 -5 -1 -10 4 -10 6 0 11 5 11 10 0 6 -2 10 -4 10 -3 0
-8 -4 -11 -10z"/>
<path d="M3655 5160 c-3 -5 -1 -10 4 -10 6 0 11 5 11 10 0 6 -2 10 -4 10 -3 0
-8 -4 -11 -10z"/>
<path d="M3470 5156 c0 -2 8 -10 18 -17 15 -13 16 -12 3 4 -13 16 -21 21 -21
13z"/>
<path d="M2315 5140 c3 -5 8 -10 11 -10 2 0 4 5 4 10 0 6 -5 10 -11 10 -5 0
-7 -4 -4 -10z"/>
<path d="M2876 5142 c-3 -5 1 -9 9 -9 8 0 12 4 9 9 -3 4 -7 8 -9 8 -2 0 -6 -4
-9 -8z"/>
<path d="M3890 5140 c0 -5 5 -10 11 -10 5 0 7 5 4 10 -3 6 -8 10 -11 10 -2 0
-4 -4 -4 -10z"/>
<path d="M3994 5142 c4 -3 14 -7 22 -8 9 -1 13 0 10 4 -4 3 -14 7 -22 8 -9 1
-13 0 -10 -4z"/>
<path d="M3199 5127 c8 -9 16 -15 19 -12 3 3 12 -1 21 -8 14 -11 14 -10 2 6
-8 9 -16 15 -19 12 -3 -3 -12 1 -21 8 -14 11 -14 10 -2 -6z"/>
<path d="M1920 5120 c-9 -6 -10 -10 -3 -10 6 0 15 5 18 10 8 12 4 12 -15 0z"/>
<path d="M2470 5119 c0 -5 5 -7 10 -4 6 3 10 8 10 11 0 2 -4 4 -10 4 -5 0 -10
-5 -10 -11z"/>
<path d="M2515 5121 c-3 -5 -2 -12 3 -15 5 -3 9 1 9 9 0 17 -3 19 -12 6z"/>
<path d="M2627 5119 c7 -7 15 -10 18 -7 3 3 -2 9 -12 12 -14 6 -15 5 -6 -5z"/>
<path d="M3150 5121 c0 -6 4 -13 10 -16 6 -3 7 1 4 9 -7 18 -14 21 -14 7z"/>
<path d="M3272 5124 c3 -3 12 -6 20 -8 7 -1 20 -5 28 -10 12 -7 13 -6 3 4 -7
8 -23 15 -35 17 -12 2 -19 1 -16 -3z"/>
<path d="M3352 5124 c3 -3 12 -6 20 -8 7 -1 20 -5 28 -10 12 -7 13 -6 3 4 -7
8 -23 15 -35 17 -12 2 -19 1 -16 -3z"/>
<path d="M3470 5121 c0 -6 4 -13 10 -16 6 -3 7 1 4 9 -7 18 -14 21 -14 7z"/>
<path d="M3766 5118 c3 -5 10 -6 15 -3 13 9 11 12 -6 12 -8 0 -12 -4 -9 -9z"/>
<path d="M2372 5098 c2 -9 -13 -13 -54 -14 -41 -1 -56 2 -51 10 5 8 3 8 -8 0
-9 -8 -81 -11 -209 -11 -107 -1 -199 -2 -205 -3 -5 -1 -12 -1 -15 0 -19 7 -41
7 -46 -1 -7 -12 -8 -538 -1 -545 3 -3 77 -6 166 -6 112 0 161 -4 161 -12 0 -8
2 -8 8 0 10 16 235 17 225 1 -4 -7 1 -6 10 2 14 11 17 11 17 0 0 -9 3 -10 8
-3 8 12 135 17 128 5 -3 -4 1 -8 9 -8 8 0 12 4 9 8 -7 12 39 7 55 -5 11 -8 13
-8 7 2 -5 9 1 12 23 10 16 -1 27 -6 25 -10 -3 -4 0 -8 5 -8 6 0 11 4 11 9 0
12 51 11 74 -1 11 -6 16 -6 13 -1 -4 6 11 10 33 10 22 0 40 -4 40 -9 0 -4 5
-8 11 -8 5 0 8 3 6 8 -3 4 10 8 29 9 23 1 32 -2 28 -9 -5 -7 -2 -8 7 -2 20 12
39 14 39 3 0 -5 5 -9 11 -9 5 0 8 4 5 8 -3 5 8 8 24 8 16 0 27 -2 25 -6 -2 -3
5 -11 16 -18 11 -7 19 -8 19 -2 0 5 -4 10 -10 10 -5 0 -10 4 -10 9 0 5 14 8
30 7 35 -1 37 -7 10 -31 -11 -10 -20 -23 -20 -29 0 -6 5 -3 11 7 5 9 15 17 21
17 9 0 9 -3 1 -11 -9 -9 -6 -16 10 -30 12 -10 17 -18 10 -19 -6 0 -15 5 -18
10 -3 6 -14 10 -23 10 -12 -1 -8 -6 11 -16 20 -11 32 -12 47 -4 11 6 25 8 30
5 17 -11 11 -22 -12 -21 -13 1 -22 -4 -21 -11 4 -18 -4 -16 -35 5 -43 30 -59
36 -32 12 17 -15 19 -20 8 -16 -10 3 -18 1 -18 -4 0 -6 7 -10 15 -10 22 0 18
-13 -10 -38 -32 -28 -38 -28 -30 1 4 14 3 18 -3 9 -5 -7 -16 -10 -25 -6 -10 3
-17 1 -17 -6 0 -6 4 -9 9 -6 5 3 15 -2 22 -11 12 -14 11 -15 -11 -9 -20 6 -22
5 -10 -4 12 -10 11 -11 -9 -6 -18 3 -21 2 -13 -6 9 -9 18 -8 37 0 18 8 32 9
45 2 24 -13 40 -13 20 0 -11 8 -9 9 13 8 l27 -2 -25 -23 c-24 -23 -41 -31 -31
-14 3 5 -1 12 -10 15 -21 8 -20 8 -39 -11 -13 -12 -19 -13 -24 -4 -4 7 -8 -3
-8 -21 0 -18 4 -39 10 -46 7 -9 -2 -24 -36 -57 -50 -49 -59 -54 -55 -27 2 10
-3 17 -12 17 -8 0 -15 -8 -16 -18 -1 -12 -1 -13 3 -2 7 23 19 18 18 -9 -2 -28
-36 -74 -52 -69 -6 2 -15 -1 -19 -8 -5 -8 -3 -10 7 -4 8 4 3 -4 -11 -18 -14
-13 -33 -34 -43 -46 -10 -12 -23 -19 -29 -15 -6 4 -8 3 -4 -4 10 -17 -13 -25
-32 -11 -14 11 -15 11 -4 -1 6 -8 12 -19 12 -26 0 -18 -31 -26 -49 -12 -15 12
-15 11 -1 -6 11 -15 12 -20 3 -23 -7 -3 -13 -10 -14 -16 0 -7 -20 -28 -43 -47
-24 -19 -41 -39 -38 -44 3 -5 -2 -6 -12 -3 -10 4 -15 3 -11 -3 3 -6 51 -10
106 -10 99 0 100 0 95 -22 -5 -20 -4 -20 7 2 12 25 13 25 126 22 78 -2 117 -7
127 -16 7 -8 10 -17 6 -21 -4 -5 -1 -5 6 -1 6 4 12 3 12 -3 0 -5 -5 -12 -10
-14 -6 -3 -5 -4 2 -3 7 1 14 13 14 25 1 12 7 28 14 34 10 10 11 6 6 -18 -4
-16 -3 -25 1 -20 14 17 36 17 30 0 -4 -8 -3 -15 2 -15 5 0 11 9 14 19 4 15 0
19 -14 16 -11 -2 -19 0 -19 4 0 5 11 11 25 13 13 3 22 2 20 -2 -2 -3 23 -5 55
-3 35 2 60 -1 60 -6 0 -6 -6 -8 -14 -5 -8 3 -17 1 -21 -5 -4 -7 1 -9 12 -5 14
4 13 1 -5 -14 -12 -11 -28 -22 -35 -25 -7 -2 -8 -8 -3 -13 5 -5 11 -4 13 4 3
6 9 12 14 12 6 0 7 -4 4 -10 -3 -5 -1 -10 5 -10 7 0 9 7 6 16 -4 10 -2 14 6
11 7 -2 12 -10 10 -16 -1 -7 2 -9 9 -5 7 4 10 2 7 -6 -2 -8 -20 -14 -39 -15
-36 -2 -63 11 -53 26 3 5 0 9 -5 9 -18 0 -12 -18 14 -45 29 -28 37 -31 29 -12
-2 7 4 13 16 14 11 1 20 -2 20 -8 0 -5 -5 -9 -12 -9 -6 0 -9 -3 -5 -6 7 -8 39
10 37 22 -1 5 3 10 9 12 16 5 2 -29 -21 -51 -10 -10 -18 -22 -18 -26 0 -5 -8
-7 -19 -4 -10 3 -22 0 -25 -6 -4 -7 -1 -8 8 -5 9 3 16 1 16 -5 0 -6 -9 -11
-21 -11 -11 0 -18 -4 -15 -9 3 -5 -12 -25 -33 -44 -22 -20 -36 -38 -33 -42 4
-3 -2 -3 -13 1 -15 6 -17 4 -12 -11 7 -16 5 -16 -10 -4 -11 9 -14 10 -9 2 8
-14 -7 -48 -21 -48 -4 0 -7 -4 -5 -10 2 -5 -6 -1 -17 9 -26 23 -26 28 -3 24
12 -2 16 3 15 20 -2 13 0 21 5 18 11 -6 47 22 38 31 -4 4 -11 1 -16 -7 -6 -8
-10 -11 -10 -6 0 5 -7 3 -15 -4 -9 -7 -13 -20 -10 -29 3 -12 -1 -17 -15 -17
-11 0 -20 5 -20 10 0 5 -3 6 -7 3 -3 -4 4 -18 17 -32 l23 -24 -73 -74 c-40
-41 -80 -73 -89 -72 -9 1 -10 0 -3 -2 16 -6 15 -11 -3 -29 -8 -9 -15 -13 -15
-9 0 3 -11 -6 -25 -21 -14 -15 -25 -31 -25 -36 0 -5 -4 -6 -10 -3 -5 3 -10 -2
-10 -12 0 -14 -2 -15 -9 -5 -6 10 -10 8 -14 -8 -3 -13 -10 -19 -17 -15 -6 3
-10 3 -9 -2 5 -19 -13 -41 -28 -36 -10 4 -14 2 -9 -5 3 -6 -4 -18 -16 -26 -12
-9 -20 -16 -16 -16 3 0 -17 -22 -45 -50 -27 -27 -54 -47 -59 -44 -5 3 -7 0 -6
-8 2 -7 -3 -12 -10 -10 -8 1 -11 -2 -8 -7 4 -5 -3 -16 -14 -24 -11 -7 -17 -17
-13 -20 3 -4 -1 -7 -11 -7 -9 0 -14 -4 -11 -10 6 -9 -7 -14 -27 -11 -4 0 -4
-7 -1 -16 5 -12 2 -15 -10 -10 -9 3 -16 3 -15 -1 1 -4 -2 -15 -7 -25 -7 -17
-8 -17 -21 0 -13 17 -14 17 -8 1 7 -19 -44 -81 -58 -72 -5 3 -8 2 -7 -3 3 -18
-1 -36 -8 -30 -3 4 -17 -8 -30 -25 -12 -18 -23 -28 -23 -24 0 4 -12 -6 -26
-23 -14 -17 -30 -30 -37 -28 -6 1 -12 -4 -13 -10 -1 -7 -2 -18 -3 -24 0 -5 -4
-8 -8 -6 -5 2 -28 -20 -53 -49 -25 -29 -51 -51 -58 -48 -7 2 -11 0 -8 -5 9
-13 -51 -64 -66 -56 -10 6 -10 5 -1 -5 9 -10 5 -18 -20 -39 -17 -14 -35 -25
-40 -23 -5 1 -5 -2 -2 -9 8 -12 -34 -46 -50 -41 -5 2 -7 0 -2 -4 8 -8 -32 -56
-42 -50 -5 4 -5 -125 -2 -748 1 -95 2 -98 19 -83 10 10 22 15 25 12 4 -3 5 -2
2 2 -8 11 319 333 333 328 7 -3 10 0 6 6 -3 6 69 84 160 174 91 90 166 161
167 157 0 -4 5 4 10 17 6 15 14 21 25 17 9 -3 12 -2 9 4 -9 15 62 83 76 74 8
-5 11 -2 7 7 -3 8 4 23 15 34 11 11 16 14 12 6 -5 -9 -4 -12 3 -7 7 4 12 12
12 17 0 6 7 18 16 26 13 14 17 14 26 2 8 -11 9 -10 4 3 -7 22 69 103 86 92 7
-4 8 -3 4 5 -9 13 40 65 54 56 4 -3 7 3 6 12 0 9 4 18 11 20 8 3 11 -3 8 -18
-2 -12 -2 -19 2 -15 3 3 13 0 22 -7 14 -11 15 -10 1 7 -8 10 -15 24 -16 32 -3
19 71 98 84 90 6 -3 14 -1 18 5 4 8 3 9 -4 5 -7 -4 -12 -2 -12 3 0 6 6 11 14
11 8 0 18 5 22 12 5 7 3 8 -7 2 -8 -4 6 12 31 37 25 24 49 44 55 44 5 0 9 5
10 12 0 16 41 54 49 46 3 -4 6 1 6 10 0 10 5 16 12 15 7 -2 12 2 13 9 0 17 41
53 62 54 10 0 13 3 6 6 -10 3 -10 7 0 18 8 9 18 10 30 4 11 -6 17 -6 17 1 0 5
-4 10 -10 10 -5 0 -10 5 -10 11 0 6 10 8 23 5 12 -3 16 -3 10 0 -22 10 -14 20
14 20 15 -1 28 5 30 14 3 9 1 11 -4 5 -9 -11 -33 -18 -33 -9 0 9 30 36 30 27
0 -4 5 0 11 10 6 9 15 15 20 11 5 -3 9 -2 8 3 -3 20 2 33 14 33 8 0 20 11 27
25 7 14 16 23 18 20 3 -3 13 6 21 19 9 14 33 38 53 54 21 16 36 31 34 33 -1 2
6 12 16 22 10 9 18 16 18 14 0 -2 29 25 64 60 42 42 68 61 79 58 18 -8 32 11
16 21 -7 4 -9 3 -5 -4 4 -6 -1 -10 -13 -9 -19 1 -19 2 -3 18 12 12 21 13 30 6
9 -7 11 -6 8 4 -7 20 60 93 79 86 8 -4 15 -2 15 3 0 6 -5 10 -10 10 -6 0 -5 6
2 14 7 8 15 13 18 11 3 -2 16 12 30 31 18 23 31 32 45 29 11 -3 14 -2 7 1 -21
10 26 67 51 60 14 -3 17 -2 9 6 -12 12 34 61 50 52 4 -3 7 0 6 7 -2 7 8 16 22
20 20 6 21 7 5 8 -17 1 -16 4 8 20 16 10 28 21 28 25 -1 3 1 5 4 4 2 -2 11 7
20 19 15 21 29 24 51 11 6 -4 11 -1 11 7 0 7 -8 12 -19 10 -10 -2 -18 -2 -18
0 0 5 31 36 92 92 25 23 43 44 40 47 -3 3 0 7 6 7 27 3 31 4 39 13 5 5 3 6 -4
2 -26 -15 -12 10 16 29 17 11 28 21 26 23 -8 8 136 142 147 136 6 -4 9 -1 6 7
-5 15 34 59 53 59 7 0 9 3 6 7 -4 3 -3 11 2 17 7 8 -5 11 -37 10 -26 0 -53 4
-61 10 -11 8 -13 8 -7 -2 6 -10 1 -12 -21 -10 -15 2 -31 8 -35 13 -5 6 -8 6
-8 -1 0 -6 -18 -11 -40 -11 -22 0 -40 5 -40 11 0 6 -5 5 -12 -2 -16 -16 -31
-15 -22 1 5 8 2 8 -9 -2 -13 -10 -17 -10 -17 -1 0 8 -4 9 -12 3 -15 -11 -278
-11 -295 0 -7 5 -13 4 -13 -2 0 -5 -9 -9 -19 -8 -11 0 -17 5 -15 9 3 4 0 8 -6
8 -6 0 -9 4 -6 8 3 5 -1 9 -9 9 -8 0 -15 -4 -15 -9 0 -4 5 -8 12 -8 9 0 9 -3
0 -12 -10 -10 -15 -10 -21 1 -5 7 -11 9 -14 4 -6 -10 -152 -11 -162 -1 -3 3 8
12 25 19 16 8 28 19 26 26 -5 13 21 26 35 17 5 -3 9 -10 9 -16 0 -6 -7 -5 -17
3 -12 10 -15 11 -9 1 9 -15 -12 -45 -25 -36 -5 3 -9 0 -9 -5 0 -17 15 -13 44
13 23 19 26 27 17 43 -8 16 -6 25 10 42 11 11 23 21 28 21 4 0 14 11 21 25 15
28 33 34 23 8 -4 -11 -3 -14 5 -9 7 4 12 16 12 27 0 11 7 22 15 25 8 4 15 12
15 20 0 8 7 14 15 14 8 0 15 -7 15 -15 0 -8 5 -15 10 -15 7 0 7 6 0 20 -8 15
-6 24 7 40 10 11 23 20 30 20 7 0 12 6 11 13 -2 6 5 12 14 12 9 0 20 4 25 9 4
5 3 6 -4 2 -7 -4 -13 -2 -13 4 0 6 7 13 15 16 8 4 15 12 15 19 0 8 8 16 18 19
11 4 25 18 32 31 7 14 20 25 27 25 8 0 11 5 7 12 -5 7 -1 9 13 6 16 -4 19 -1
16 12 -3 12 2 20 16 25 12 3 21 11 21 17 0 5 7 7 16 4 14 -5 15 -4 4 9 -7 8
-8 15 -3 15 5 0 47 38 95 85 47 47 85 85 83 85 -1 0 23 26 54 58 31 31 59 56
64 54 4 -2 7 1 7 6 0 5 14 24 32 41 27 27 29 31 12 32 -115 4 -504 0 -513 -5
-10 -7 -16 6 -12 27 1 5 -3 6 -9 2 -6 -3 -8 -10 -6 -14 3 -4 -78 -8 -180 -8
-148 0 -184 2 -180 13 3 8 0 11 -9 7 -8 -3 -12 -9 -9 -14 3 -5 -2 -9 -11 -9
-12 0 -15 5 -11 18 5 15 5 15 -6 2 -7 -9 -28 -17 -47 -18 -28 -2 -32 0 -27 15
5 16 5 16 -6 2 -15 -18 -86 -22 -107 -5 -11 8 -13 8 -7 -2 9 -16 -52 -14 -73
2 -11 8 -13 8 -7 -2 9 -16 -52 -14 -73 2 -11 8 -13 8 -7 -2 9 -16 -52 -14 -73
2 -11 8 -13 8 -7 -2 9 -16 -52 -14 -73 2 -11 8 -13 8 -8 0 4 -8 -25 -11 -99
-11 -72 1 -103 4 -100 12 2 6 -5 11 -15 11 -13 0 -15 -3 -7 -13 8 -10 6 -13
-6 -13 -9 0 -16 5 -16 10 0 6 -5 10 -11 10 -5 0 -7 -4 -4 -10 3 -5 -1 -10 -10
-10 -11 0 -15 5 -12 14 4 10 1 13 -8 9 -8 -3 -12 -9 -9 -14 3 -5 -2 -9 -11 -9
-12 0 -15 5 -11 18 5 15 5 15 -6 1 -11 -12 -35 -16 -123 -15 -67 0 -113 4
-117 10 -5 8 -8 8 -8 0 0 -5 -18 -10 -40 -11 -27 -1 -38 3 -33 11 5 8 3 8 -8
0 -16 -13 -101 -16 -94 -4 3 5 1 12 -5 15 -6 4 -9 1 -8 -7z m742 -580 c-3 -4
0 -8 5 -8 6 0 11 4 11 8 0 4 11 9 25 10 14 1 25 -3 25 -9 0 -6 -6 -9 -14 -6
-8 3 -20 -1 -27 -9 -7 -8 -21 -12 -33 -9 -12 3 -15 2 -8 -1 19 -9 14 -27 -5
-19 -14 5 -15 4 -6 -6 10 -10 17 -9 33 6 23 21 27 19 34 -18 3 -19 1 -27 -7
-24 -7 2 -11 13 -9 23 2 11 0 15 -5 8 -13 -17 -41 -24 -50 -11 -17 21 -13 57
5 57 15 0 15 2 2 10 -12 7 -10 9 7 7 12 0 19 -5 17 -9z m96 4 c0 -4 -5 -13
-11 -19 -7 -7 -12 -22 -13 -34 -1 -27 -21 -37 -22 -12 -1 10 -5 27 -9 38 -8
17 -7 18 7 7 14 -11 17 -10 23 7 6 20 25 30 25 13z m50 -23 c-16 -16 -33 -29
-39 -29 -6 0 -8 -7 -4 -15 3 -9 2 -15 -3 -13 -11 4 -54 -38 -54 -52 0 -5 -8
-10 -17 -9 -11 0 -13 3 -5 6 6 2 10 8 7 13 -3 5 9 18 25 30 17 12 29 27 27 34
-7 19 13 48 30 42 12 -5 13 -3 5 6 -8 10 -3 13 23 14 l34 1 -29 -28z m-132
-115 c0 -32 -26 -43 -44 -19 -12 16 -14 16 -14 3 0 -9 -6 -19 -12 -22 -7 -2
-2 -4 11 -3 13 1 25 -2 27 -8 2 -6 -15 -10 -41 -10 l-45 -1 26 27 c14 15 23
32 20 38 -12 18 6 12 30 -10 16 -15 24 -17 29 -8 5 7 4 10 -3 5 -7 -4 -10 1
-9 14 2 30 25 24 25 -6z m-118 -103 c0 -5 3 -18 6 -28 5 -17 5 -17 -8 -1 -13
15 -15 15 -26 -2 -6 -11 -9 -27 -5 -37 6 -16 5 -16 -10 -4 -22 18 -21 26 5 56
22 26 38 32 38 16z m-10 -41 c0 -5 -5 -10 -11 -10 -5 0 -7 5 -4 10 3 6 8 10
11 10 2 0 4 -4 4 -10z m0 -501 c0 -6 -4 -7 -10 -4 -5 3 -10 11 -10 16 0 6 5 7
10 4 6 -3 10 -11 10 -16z m233 -21 c-9 -16 -20 -7 -18 15 4 32 6 34 14 12 5
-11 7 -23 4 -27z m50 29 c4 3 7 1 7 -5 0 -7 4 -12 10 -12 5 0 8 6 6 13 -1 6
-1 9 1 5 2 -4 12 -5 21 -2 12 4 11 0 -5 -14 -12 -11 -19 -23 -15 -28 4 -5 -2
-1 -14 9 -18 14 -23 15 -39 3 -18 -13 -17 -13 8 -11 34 4 35 -10 1 -31 -25
-17 -26 -16 -52 9 -22 22 -24 29 -13 39 9 9 12 9 7 1 -3 -6 -2 -15 4 -18 13
-8 42 14 34 26 -9 16 6 31 20 20 7 -6 16 -8 19 -4z m-33 -101 c0 -3 -4 -8 -10
-11 -5 -3 -10 -1 -10 4 0 6 5 11 10 11 6 0 10 -2 10 -4z"/>
<path d="M3205 4480 c-3 -6 1 -7 9 -4 18 7 21 14 7 14 -6 0 -13 -4 -16 -10z"/>
<path d="M3220 3685 c0 -8 29 -12 39 -5 9 5 4 8 -13 8 -14 0 -26 -2 -26 -3z"/>
<path d="M3506 5098 c3 -5 10 -6 15 -3 13 9 11 12 -6 12 -8 0 -12 -4 -9 -9z"/>
<path d="M4396 4807 c3 -10 9 -15 12 -12 3 3 0 11 -7 18 -10 9 -11 8 -5 -6z"/>
<path d="M4373 4743 c4 -3 1 -13 -6 -22 -11 -14 -10 -14 5 -2 16 12 16 31 1
31 -4 0 -3 -3 0 -7z"/>
<path d="M4319 4713 c-13 -16 -12 -17 4 -4 16 13 21 21 13 21 -2 0 -10 -8 -17
-17z"/>
<path d="M4316 4673 c-6 -14 -5 -15 5 -6 7 7 10 15 7 18 -3 3 -9 -2 -12 -12z"/>
<path d="M4356 4678 c3 -5 10 -6 15 -3 13 9 11 12 -6 12 -8 0 -12 -4 -9 -9z"/>
<path d="M4215 4660 c-3 -5 -1 -10 4 -10 6 0 11 5 11 10 0 6 -2 10 -4 10 -3 0
-8 -4 -11 -10z"/>
<path d="M4394 4662 c4 -3 14 -7 22 -8 9 -1 13 0 10 4 -4 3 -14 7 -22 8 -9 1
-13 0 -10 -4z"/>
<path d="M4306 4638 c3 -5 10 -6 15 -3 13 9 11 12 -6 12 -8 0 -12 -4 -9 -9z"/>
<path d="M4206 4605 c-18 -14 -18 -14 1 -12 11 0 20 7 20 14 0 7 -1 13 -1 13
-1 0 -9 -7 -20 -15z"/>
<path d="M4315 4611 c-3 -5 -2 -12 3 -15 5 -3 9 1 9 9 0 17 -3 19 -12 6z"/>
<path d="M4346 4598 c3 -5 10 -6 15 -3 13 9 11 12 -6 12 -8 0 -12 -4 -9 -9z"/>
<path d="M4415 4580 c-3 -5 -1 -10 4 -10 6 0 11 5 11 10 0 6 -2 10 -4 10 -3 0
-8 -4 -11 -10z"/>
<path d="M4183 4564 c9 -11 15 -23 12 -26 -3 -3 5 -13 17 -24 23 -19 23 -19 5
2 -9 11 -15 23 -12 26 3 3 -5 13 -17 24 -23 19 -23 19 -5 -2z"/>
<path d="M4139 4553 c-13 -16 -12 -17 4 -4 9 7 17 15 17 17 0 8 -8 3 -21 -13z"/>
<path d="M4156 4542 c-3 -5 1 -9 9 -9 8 0 12 4 9 9 -3 4 -7 8 -9 8 -2 0 -6 -4
-9 -8z"/>
<path d="M4230 4541 c0 -6 4 -13 10 -16 6 -3 7 1 4 9 -7 18 -14 21 -14 7z"/>
<path d="M4375 4540 c-3 -5 -1 -10 4 -10 6 0 11 5 11 10 0 6 -2 10 -4 10 -3 0
-8 -4 -11 -10z"/>
<path d="M4406 4542 c-3 -5 1 -9 9 -9 8 0 12 4 9 9 -3 4 -7 8 -9 8 -2 0 -6 -4
-9 -8z"/>
<path d="M4294 4518 c-4 -7 -4 -10 1 -6 4 4 15 2 24 -5 14 -11 14 -10 2 6 -16
20 -18 21 -27 5z"/>
<path d="M2770 4511 c0 -6 4 -13 10 -16 6 -3 7 1 4 9 -7 18 -14 21 -14 7z"/>
<path d="M2860 4512 c0 -7 -5 -11 -12 -9 -6 1 -14 -6 -16 -15 -2 -10 1 -18 7
-18 6 0 7 7 4 17 -4 10 -2 14 5 9 12 -7 28 12 18 21 -3 4 -6 1 -6 -5z"/>
<path d="M2174 4502 c4 -3 14 -7 22 -8 9 -1 13 0 10 4 -4 3 -14 7 -22 8 -9 1
-13 0 -10 -4z"/>
<path d="M2599 4508 c0 -2 -2 -10 -4 -19 -3 -19 22 -21 29 -3 3 9 -1 11 -11 7
-11 -4 -14 -2 -9 5 4 7 5 12 2 12 -3 0 -6 -1 -7 -2z"/>
<path d="M2753 4498 c7 -21 3 -22 -24 -8 -10 6 -19 8 -19 6 0 -3 13 -12 29
-21 29 -14 30 -14 26 6 -3 12 -7 24 -11 28 -4 3 -4 -2 -1 -11z"/>
<path d="M2894 4495 c-3 -8 -11 -12 -18 -8 -6 3 -2 -3 8 -15 11 -12 25 -22 32
-22 7 0 18 -9 24 -20 6 -11 15 -18 20 -15 4 3 11 0 13 -5 4 -7 5 -6 4 1 -2 6
-7 11 -12 11 -6 0 -16 9 -23 19 -7 11 -19 19 -25 19 -7 0 -13 9 -14 19 -1 13
3 18 13 14 7 -3 11 -9 8 -14 -3 -5 0 -9 5 -9 18 0 12 19 -9 30 -16 9 -22 8
-26 -5z"/>
<path d="M4370 4499 c0 -5 5 -7 10 -4 6 3 10 8 10 11 0 2 -4 4 -10 4 -5 0 -10
-5 -10 -11z"/>
<path d="M2364 4478 l-19 -23 23 19 c21 18 27 26 19 26 -2 0 -12 -10 -23 -22z"/>
<path d="M2499 4498 c-5 -18 -6 -38 -1 -34 7 8 12 36 6 36 -2 0 -4 -1 -5 -2z"/>
<path d="M2661 4483 c7 -10 15 -20 16 -22 2 -2 3 3 3 11 0 9 -7 19 -16 22 -15
6 -15 4 -3 -11z"/>
<path d="M2796 4484 c-7 -19 2 -37 14 -29 5 3 8 -4 7 -15 -1 -11 -7 -20 -14
-20 -16 0 -17 -16 -1 -26 6 -4 8 -3 5 3 -4 6 -1 13 7 16 17 7 15 53 -3 49 -8
-2 -10 4 -6 18 7 24 0 27 -9 4z"/>
<path d="M2953 4475 c0 -30 6 -28 12 4 2 11 0 21 -4 21 -5 0 -8 -11 -8 -25z"/>
<path d="M2981 4488 c-1 -20 14 -24 25 -6 4 6 3 8 -4 4 -5 -3 -13 0 -15 6 -3
8 -6 6 -6 -4z"/>
<path d="M4066 4485 c-18 -13 -18 -14 2 -12 11 0 19 4 16 8 -2 4 2 10 8 12 7
3 9 6 3 6 -5 0 -18 -6 -29 -14z"/>
<path d="M4131 4487 c2 -2 11 -8 20 -15 12 -9 16 -9 16 1 0 7 -9 14 -20 14
-11 1 -18 1 -16 0z"/>
<path d="M2175 4471 c-3 -5 -2 -12 3 -15 5 -3 9 1 9 9 0 17 -3 19 -12 6z"/>
<path d="M2076 4453 c-6 -14 -5 -15 5 -6 7 7 10 15 7 18 -3 3 -9 -2 -12 -12z"/>
<path d="M2390 4462 c0 -5 7 -9 15 -9 8 0 12 4 9 9 -3 4 -9 8 -15 8 -5 0 -9
-4 -9 -8z"/>
<path d="M2710 4460 c0 -5 5 -10 10 -10 6 0 10 5 10 10 0 6 -4 10 -10 10 -5 0
-10 -4 -10 -10z"/>
<path d="M2851 4452 c-8 -15 -7 -23 4 -32 9 -7 18 -10 22 -6 3 3 2 6 -3 6 -5
0 -10 10 -11 23 -2 21 -1 21 13 3 8 -11 14 -15 14 -9 0 6 -6 16 -14 22 -12 10
-17 8 -25 -7z"/>
<path d="M3005 4460 c-3 -5 -1 -10 4 -10 6 0 11 5 11 10 0 6 -2 10 -4 10 -3 0
-8 -4 -11 -10z"/>
<path d="M4108 4451 c4 -10 1 -12 -9 -6 -8 5 -11 4 -6 0 4 -5 15 -10 23 -11 9
-1 13 0 10 3 -3 4 -2 11 4 17 6 8 3 12 -9 12 -12 0 -17 -5 -13 -15z"/>
<path d="M4197 4448 c19 -21 31 -25 14 -5 -6 8 -9 16 -6 19 3 2 -2 5 -10 5
-13 0 -13 -3 2 -19z"/>
<path d="M2446 4445 c-18 -14 -18 -14 1 -12 11 0 20 7 20 14 0 7 -1 13 -1 13
-1 0 -9 -7 -20 -15z"/>
<path d="M2515 4450 c-4 -6 -10 -8 -14 -6 -4 3 -8 -1 -8 -9 0 -12 4 -12 21 2
12 10 23 19 25 20 2 2 -1 3 -7 3 -6 0 -14 -5 -17 -10z"/>
<path d="M2972 4448 c2 -6 10 -13 16 -14 7 -1 8 0 2 3 -5 2 -8 9 -4 14 3 5 0
9 -6 9 -7 0 -10 -5 -8 -12z"/>
<path d="M4030 4446 c0 -8 4 -17 9 -20 5 -4 7 3 4 14 -6 23 -13 26 -13 6z"/>
<path d="M2561 4436 c-9 -11 -9 -16 1 -22 7 -4 10 -4 6 1 -4 4 -3 14 3 22 6 7
9 13 6 13 -2 0 -10 -6 -16 -14z"/>
<path d="M2635 4440 c3 -5 8 -10 11 -10 2 0 4 5 4 10 0 6 -5 10 -11 10 -5 0
-7 -4 -4 -10z"/>
<path d="M2676 4434 c-11 -8 -16 -14 -10 -14 13 0 39 18 34 24 -3 2 -14 -2
-24 -10z"/>
<path d="M2740 4439 c0 -5 5 -7 10 -4 6 3 10 8 10 11 0 2 -4 4 -10 4 -5 0 -10
-5 -10 -11z"/>
<path d="M2770 4440 c0 -5 5 -10 10 -10 6 0 10 5 10 10 0 6 -4 10 -10 10 -5 0
-10 -4 -10 -10z"/>
<path d="M4330 4441 c0 -6 4 -13 10 -16 6 -3 7 1 4 9 -7 18 -14 21 -14 7z"/>
<path d="M4500 4440 c-9 -6 -10 -10 -3 -10 6 0 15 5 18 10 8 12 4 12 -15 0z"/>
<path d="M4636 4442 c-3 -5 1 -9 9 -9 8 0 12 4 9 9 -3 4 -7 8 -9 8 -2 0 -6 -4
-9 -8z"/>
<path d="M4060 4436 c0 -2 7 -7 16 -10 8 -3 12 -2 9 4 -6 10 -25 14 -25 6z"/>
<path d="M4275 4431 c-3 -5 -2 -12 3 -15 5 -3 9 1 9 9 0 17 -3 19 -12 6z"/>
<path d="M2519 4413 c-13 -16 -12 -17 4 -4 16 13 21 21 13 21 -2 0 -10 -8 -17
-17z"/>
<path d="M2713 4408 c-2 -18 0 -20 7 -8 12 18 13 30 2 30 -4 0 -9 -10 -9 -22z"/>
<path d="M2895 4420 c-8 -13 5 -13 25 0 13 8 13 10 -2 10 -9 0 -20 -4 -23 -10z"/>
<path d="M3990 4420 c0 -5 5 -10 10 -10 6 0 10 5 10 10 0 6 -4 10 -10 10 -5 0
-10 -4 -10 -10z"/>
<path d="M2995 4410 c3 -6 -1 -13 -9 -16 -9 -3 -16 -10 -16 -15 0 -5 9 -4 20
3 21 14 27 38 9 38 -5 0 -7 -5 -4 -10z"/>
<path d="M4016 4405 c-3 -8 -1 -15 4 -15 6 0 10 7 10 15 0 8 -2 15 -4 15 -2 0
-6 -7 -10 -15z"/>
<path d="M4216 4407 c3 -10 9 -15 12 -12 3 3 0 11 -7 18 -10 9 -11 8 -5 -6z"/>
<path d="M2226 4402 c-3 -5 1 -9 9 -9 8 0 12 4 9 9 -3 4 -7 8 -9 8 -2 0 -6 -4
-9 -8z"/>
<path d="M2315 4401 c-3 -5 -2 -12 3 -15 5 -3 9 1 9 9 0 17 -3 19 -12 6z"/>
<path d="M2610 4400 c0 -5 5 -10 10 -10 6 0 10 5 10 10 0 6 -4 10 -10 10 -5 0
-10 -4 -10 -10z"/>
<path d="M2735 4399 c-11 -16 -1 -19 13 -3 7 8 8 14 3 14 -5 0 -13 -5 -16 -11z"/>
<path d="M2838 4401 c10 -6 8 -10 -8 -14 -14 -4 -19 -10 -14 -18 5 -9 2 -10
-9 -6 -10 3 -17 2 -17 -4 0 -6 8 -9 18 -7 9 2 16 9 15 15 -1 6 10 14 24 18 21
5 24 8 12 16 -7 5 -18 9 -24 9 -5 0 -4 -4 3 -9z"/>
<path d="M2915 4400 c-3 -5 -2 -10 4 -10 5 0 13 5 16 10 3 6 2 10 -4 10 -5 0
-13 -4 -16 -10z"/>
<path d="M4136 4402 c-3 -5 1 -9 9 -9 8 0 12 4 9 9 -3 4 -7 8 -9 8 -2 0 -6 -4
-9 -8z"/>
<path d="M4244 4402 c4 -3 14 -7 22 -8 9 -1 13 0 10 4 -4 3 -14 7 -22 8 -9 1
-13 0 -10 -4z"/>
<path d="M2775 4390 c6 -10 4 -12 -8 -7 -10 3 -17 2 -17 -3 0 -13 27 -13 35
-1 3 5 0 13 -6 17 -8 5 -9 3 -4 -6z"/>
<path d="M2940 4385 c-6 -8 -10 -19 -8 -26 2 -6 9 0 16 15 13 29 10 33 -8 11z"/>
<path d="M2465 4379 c-3 -4 2 -6 10 -5 21 3 28 13 10 13 -9 0 -18 -4 -20 -8z"/>
<path d="M2557 4368 c19 -21 31 -24 14 -4 -9 11 -9 15 1 19 7 3 3 4 -9 4 -21
-1 -21 -2 -6 -19z"/>
<path d="M3950 4380 c0 -6 7 -10 15 -10 8 0 15 2 15 4 0 2 -7 6 -15 10 -8 3
-15 1 -15 -4z"/>
<path d="M4035 4380 c-3 -5 -1 -10 4 -10 6 0 11 5 11 10 0 6 -2 10 -4 10 -3 0
-8 -4 -11 -10z"/>
<path d="M2670 4370 c8 -5 20 -10 25 -10 6 0 3 5 -5 10 -8 5 -19 10 -25 10 -5
0 -3 -5 5 -10z"/>
<path d="M2870 4369 c0 -5 5 -7 10 -4 6 3 10 8 10 11 0 2 -4 4 -10 4 -5 0 -10
-5 -10 -11z"/>
<path d="M2892 4359 c-7 -11 -17 -17 -22 -14 -5 3 -15 -6 -22 -19 -7 -14 -17
-24 -23 -23 -5 1 -11 -8 -13 -21 -2 -12 -8 -20 -13 -17 -5 4 -9 1 -9 -5 0 -20
24 -5 30 19 3 12 9 21 13 19 5 -2 15 8 22 22 8 14 14 21 15 16 0 -5 8 -1 19 8
16 15 19 15 24 1 4 -8 12 -15 19 -15 9 0 9 3 2 8 -6 4 -15 15 -20 24 -9 16
-10 16 -22 -3z"/>
<path d="M3010 4369 c0 -5 5 -7 10 -4 6 3 10 8 10 11 0 2 -4 4 -10 4 -5 0 -10
-5 -10 -11z"/>
<path d="M3931 4363 c0 -12 -6 -25 -12 -28 -17 -11 21 -45 45 -41 13 2 21 10
21 22 0 10 9 22 20 26 17 6 16 7 -5 5 -19 -2 -24 -7 -22 -22 2 -15 -3 -21 -18
-22 -18 -2 -19 1 -10 13 9 10 9 14 1 14 -6 0 -11 -5 -11 -11 0 -5 -5 -7 -10
-4 -8 5 -7 11 0 20 7 8 10 22 7 32 -4 14 -5 14 -6 -4z"/>
<path d="M3995 4370 c-3 -6 1 -7 9 -4 18 7 21 14 7 14 -6 0 -13 -4 -16 -10z"/>
<path d="M4060 4373 c0 -6 8 -17 18 -24 16 -13 16 -13 2 6 -8 11 -16 22 -17
24 -2 2 -3 0 -3 -6z"/>
<path d="M4140 4376 c0 -2 7 -7 16 -10 8 -3 12 -2 9 4 -6 10 -25 14 -25 6z"/>
<path d="M4201 4360 c-13 -11 -18 -20 -13 -20 6 0 14 5 17 10 4 6 10 8 14 6 4
-3 8 1 8 9 0 8 -1 15 -1 15 -1 -1 -12 -10 -25 -20z"/>
<path d="M4262 4364 c10 -10 20 -16 22 -13 3 3 -5 11 -17 18 -21 13 -21 12 -5
-5z"/>
<path d="M2233 4353 c0 -9 4 -10 14 -2 7 6 13 12 13 14 0 1 -6 2 -13 2 -8 0
-14 -6 -14 -14z"/>
<path d="M2313 4355 c0 -8 4 -12 9 -9 5 3 6 10 3 15 -9 13 -12 11 -12 -6z"/>
<path d="M2499 4353 c-13 -17 -13 -17 6 -3 11 8 22 16 24 17 2 2 0 3 -6 3 -6
0 -17 -8 -24 -17z"/>
<path d="M2635 4360 c-3 -5 -1 -10 4 -10 6 0 11 5 11 10 0 6 -2 10 -4 10 -3 0
-8 -4 -11 -10z"/>
<path d="M2731 4354 c0 -11 3 -14 6 -6 3 7 2 16 -1 19 -3 4 -6 -2 -5 -13z"/>
<path d="M2840 4355 c-7 -9 -11 -17 -9 -20 3 -2 10 5 17 15 14 24 10 26 -8 5z"/>
<path d="M4100 4361 c0 -9 30 -24 36 -18 2 1 -6 8 -16 15 -11 7 -20 8 -20 3z"/>
<path d="M4036 4347 c3 -10 9 -15 12 -12 3 3 0 11 -7 18 -10 9 -11 8 -5 -6z"/>
<path d="M2173 4335 c0 -8 4 -12 9 -9 5 3 6 10 3 15 -9 13 -12 11 -12 -6z"/>
<path d="M2710 4341 c0 -10 29 -36 34 -30 1 2 -6 12 -16 22 -10 9 -18 13 -18
8z"/>
<path d="M2750 4341 c0 -6 6 -8 13 -5 8 3 13 -4 14 -16 1 -12 -2 -18 -9 -14
-7 4 -8 2 -4 -5 11 -17 26 -3 22 22 -3 22 -36 38 -36 18z"/>
<path d="M4450 4340 c0 -5 5 -10 11 -10 5 0 7 5 4 10 -3 6 -8 10 -11 10 -2 0
-4 -4 -4 -10z"/>
<path d="M2676 4327 c3 -8 11 -14 19 -14 20 0 19 4 -5 17 -15 8 -18 8 -14 -3z"/>
<path d="M4061 4335 c0 -5 4 -17 9 -25 7 -11 10 -11 10 -2 0 7 5 10 12 6 7 -4
8 -3 4 5 -4 6 -11 9 -16 6 -4 -3 -11 1 -13 7 -3 7 -6 9 -6 3z"/>
<path d="M4215 4329 c-4 -6 -5 -12 -2 -15 2 -3 7 2 10 11 7 17 1 20 -8 4z"/>
<path d="M1985 4320 c-3 -6 1 -7 9 -4 18 7 21 14 7 14 -6 0 -13 -4 -16 -10z"/>
<path d="M2594 4314 c1 -7 6 -17 10 -21 4 -4 7 -3 6 2 -5 22 1 29 11 15 8 -12
10 -12 7 -1 -5 18 -37 23 -34 5z"/>
<path d="M2800 4319 c0 -5 5 -7 10 -4 6 3 10 8 10 11 0 2 -4 4 -10 4 -5 0 -10
-5 -10 -11z"/>
<path d="M2880 4320 c-8 -5 -12 -11 -10 -14 3 -2 14 2 24 10 22 15 10 19 -14
4z"/>
<path d="M3874 4322 c3 -5 -5 -24 -20 -41 -14 -17 -23 -35 -20 -40 3 -5 -4
-20 -15 -35 -15 -19 -16 -24 -5 -20 9 3 16 10 16 16 0 5 5 6 12 2 8 -5 9 -2 5
9 -4 10 1 21 11 27 16 11 16 11 0 6 -20 -6 -25 9 -7 20 6 3 18 -1 27 -9 14
-15 14 -17 -1 -23 -9 -3 -17 -10 -17 -16 0 -5 4 -7 9 -4 5 4 11 3 14 -1 2 -5
2 -2 1 5 -2 7 3 15 11 18 12 5 11 9 -6 23 -18 15 -20 21 -10 39 8 15 8 23 -1
28 -6 4 -8 3 -4 -4z"/>
<path d="M4015 4320 c3 -5 11 -10 16 -10 6 0 7 5 4 10 -3 6 -11 10 -16 10 -6
0 -7 -4 -4 -10z"/>
<path d="M4279 4313 c-12 -16 -12 -17 2 -6 9 7 19 10 22 6 4 -3 7 -1 7 5 0 17
-16 15 -31 -5z"/>
<path d="M4230 4316 c0 -2 8 -10 18 -17 15 -13 16 -12 3 4 -13 16 -21 21 -21
13z"/>
<path d="M2255 4300 c-3 -5 -1 -10 4 -10 6 0 11 5 11 10 0 6 -2 10 -4 10 -3 0
-8 -4 -11 -10z"/>
<path d="M2295 4300 c3 -5 8 -10 11 -10 2 0 4 5 4 10 0 6 -5 10 -11 10 -5 0
-7 -4 -4 -10z"/>
<path d="M2500 4304 c0 -1 8 -8 17 -15 9 -8 14 -9 10 -2 -4 6 -1 13 5 16 7 3
3 4 -9 4 -13 -1 -23 -2 -23 -3z"/>
<path d="M2894 4299 c-5 -9 -2 -10 10 -6 13 5 17 3 13 -6 -3 -8 -1 -20 4 -28
5 -9 7 -5 6 15 -2 31 -20 45 -33 25z"/>
<path d="M3897 4303 c-4 -3 -7 -13 -7 -22 1 -13 3 -13 11 2 11 19 8 33 -4 20z"/>
<path d="M3999 4303 c0 -5 -3 -19 -5 -32 -2 -14 -2 -22 1 -19 8 8 17 58 10 58
-3 0 -5 -3 -6 -7z"/>
<path d="M4110 4300 c0 -5 5 -10 10 -10 6 0 10 5 10 10 0 6 -4 10 -10 10 -5 0
-10 -4 -10 -10z"/>
<path d="M2670 4290 c-8 -5 -12 -11 -10 -14 3 -2 14 2 24 10 22 15 10 19 -14
4z"/>
<path d="M2715 4290 c-3 -6 1 -7 9 -4 18 7 21 14 7 14 -6 0 -13 -4 -16 -10z"/>
<path d="M3824 4278 l-19 -23 23 19 c21 18 27 26 19 26 -2 0 -12 -10 -23 -22z"/>
<path d="M4210 4291 c0 -7 -4 -10 -9 -7 -11 7 -9 -21 2 -29 4 -3 5 -2 2 2 -3
3 0 12 7 20 6 7 8 16 4 20 -3 3 -6 1 -6 -6z"/>
<path d="M2539 4273 c-13 -17 -13 -17 6 -3 11 8 22 16 24 17 2 2 0 3 -6 3 -6
0 -17 -8 -24 -17z"/>
<path d="M2626 4280 c5 -8 9 -18 9 -22 0 -3 3 -9 7 -13 3 -4 5 0 4 9 -1 9 -8
22 -16 29 -10 10 -11 9 -4 -3z"/>
<path d="M2741 4280 c-9 -5 -4 -7 13 -7 29 0 32 2 13 10 -8 3 -20 2 -26 -3z"/>
<path d="M2839 4273 c-13 -17 -13 -17 6 -3 11 8 22 16 24 17 2 2 0 3 -6 3 -6
0 -17 -8 -24 -17z"/>
<path d="M3917 4283 c-4 -3 -7 -11 -7 -17 0 -6 5 -5 12 2 6 6 9 14 7 17 -3 3
-9 2 -12 -2z"/>
<path d="M4020 4285 c0 -8 29 -12 39 -5 9 5 4 8 -13 8 -14 0 -26 -2 -26 -3z"/>
<path d="M2870 4270 c-8 -5 -15 -13 -16 -17 0 -4 -7 -20 -14 -36 -10 -20 -10
-31 -3 -38 14 -14 36 -2 27 13 -5 7 -2 9 8 6 8 -4 21 -2 29 3 9 5 4 7 -16 5
-17 -1 -29 -8 -27 -14 1 -7 -2 -12 -8 -12 -14 0 -12 22 5 46 8 12 12 24 9 27
-4 3 3 5 14 4 12 0 23 -9 25 -19 3 -10 11 -18 19 -17 10 0 10 2 1 6 -7 2 -13
10 -13 18 0 20 -24 35 -40 25z"/>
<path d="M3948 4269 c-11 -6 -15 -16 -11 -26 4 -9 2 -14 -3 -10 -6 3 -16 1
-24 -4 -13 -9 -13 -10 0 -8 22 3 51 -12 44 -22 -3 -5 3 -6 12 -2 11 4 13 8 6
11 -7 2 -10 8 -7 13 4 5 0 6 -7 4 -9 -4 -14 2 -14 15 0 26 11 25 30 -2 9 -12
16 -17 16 -11 0 6 -7 16 -15 23 -13 11 -13 15 -3 21 19 12 -4 10 -24 -2z"/>
<path d="M4068 4269 c-10 -5 -15 -18 -13 -30 3 -16 -1 -19 -18 -17 -15 2 -22
-3 -24 -17 -2 -15 -1 -16 5 -5 4 8 16 15 27 15 15 0 20 6 19 23 -1 19 3 23 17
19 11 -3 22 0 26 5 3 6 1 8 -5 4 -5 -3 -12 -2 -14 3 -2 6 -9 6 -20 0z"/>
<path d="M2194 4262 c4 -3 14 -7 22 -8 9 -1 13 0 10 4 -4 3 -14 7 -22 8 -9 1
-13 0 -10 -4z"/>
<path d="M2716 4257 c3 -10 9 -15 12 -12 3 3 0 11 -7 18 -10 9 -11 8 -5 -6z"/>
<path d="M4010 4250 c-6 -11 -8 -20 -6 -20 3 0 10 9 16 20 6 11 8 20 6 20 -3
0 -10 -9 -16 -20z"/>
<path d="M4225 4260 c-3 -6 1 -7 9 -4 18 7 21 14 7 14 -6 0 -13 -4 -16 -10z"/>
<path d="M4270 4255 c5 -7 6 -16 2 -21 -4 -5 -3 -5 2 -1 15 12 15 34 0 34 -9
0 -11 -4 -4 -12z"/>
<path d="M2350 4256 c0 -2 8 -10 18 -17 15 -13 16 -12 3 4 -13 16 -21 21 -21
13z"/>
<path d="M4106 4245 c-11 -8 -15 -15 -9 -15 6 0 16 7 23 15 16 19 11 19 -14 0z"/>
<path d="M4150 4253 c5 -2 8 -9 5 -13 -3 -5 -1 -11 4 -14 5 -4 8 2 7 11 -2 9
-8 18 -15 19 -6 1 -7 0 -1 -3z"/>
<path d="M4333 4245 c0 -8 4 -12 9 -9 5 3 6 10 3 15 -9 13 -12 11 -12 -6z"/>
<path d="M2456 4238 c3 -5 10 -6 15 -3 13 9 11 12 -6 12 -8 0 -12 -4 -9 -9z"/>
<path d="M2551 4247 c2 -1 13 -9 24 -17 19 -14 19 -14 6 3 -7 9 -18 17 -24 17
-6 0 -8 -1 -6 -3z"/>
<path d="M2690 4239 c0 -5 5 -7 10 -4 6 3 10 8 10 11 0 2 -4 4 -10 4 -5 0 -10
-5 -10 -11z"/>
<path d="M2754 4238 c-4 -6 -3 -8 4 -4 5 3 13 0 15 -6 3 -8 6 -6 6 5 1 19 -14
23 -25 5z"/>
<path d="M2820 4235 c0 -9 -6 -12 -15 -9 -8 4 -15 2 -15 -4 0 -6 7 -9 16 -8
19 3 41 36 24 36 -5 0 -10 -7 -10 -15z"/>
<path d="M4470 4239 c0 -5 5 -7 10 -4 6 3 10 8 10 11 0 2 -4 4 -10 4 -5 0 -10
-5 -10 -11z"/>
<path d="M2875 4230 c-3 -5 -1 -10 4 -10 6 0 11 5 11 10 0 6 -2 10 -4 10 -3 0
-8 -4 -11 -10z"/>
<path d="M2710 4221 c0 -10 19 -25 25 -20 1 2 -3 10 -11 17 -8 7 -14 8 -14 3z"/>
<path d="M4123 4222 c-7 -4 -9 -13 -4 -21 6 -9 10 -7 14 8 3 12 4 21 4 21 -1
0 -7 -4 -14 -8z"/>
<path d="M4188 4223 c6 -3 10 -9 6 -14 -8 -14 2 -11 14 4 8 10 6 13 -11 14
-12 0 -16 -1 -9 -4z"/>
<path d="M4230 4226 c0 -2 7 -7 16 -10 8 -3 12 -2 9 4 -6 10 -25 14 -25 6z"/>
<path d="M2686 4203 c-8 -20 9 -40 19 -22 6 8 4 10 -5 4 -9 -5 -10 -2 -5 14 8
25 0 29 -9 4z"/>
<path d="M2753 4199 c-2 -23 3 -25 10 -4 4 8 3 16 -1 19 -4 3 -9 -4 -9 -15z"/>
<path d="M4065 4204 c-12 -10 -14 -14 -5 -11 8 2 24 0 35 -5 18 -8 19 -8 3 5
-10 8 -15 17 -11 20 12 13 -2 6 -22 -9z"/>
<path d="M2493 4193 c0 -10 4 -10 16 -1 9 7 18 13 20 15 2 1 -5 1 -16 0 -11 0
-20 -7 -20 -14z"/>
<path d="M2613 4197 c-4 -6 -1 -7 7 -2 10 6 12 4 7 -8 -9 -23 0 -22 12 1 8 14
6 19 -5 19 -8 0 -18 -5 -21 -10z"/>
<path d="M2920 4206 c0 -2 7 -7 16 -10 8 -3 12 -2 9 4 -6 10 -25 14 -25 6z"/>
<path d="M4390 4200 c0 -5 5 -10 11 -10 5 0 7 5 4 10 -3 6 -8 10 -11 10 -2 0
-4 -4 -4 -10z"/>
<path d="M2775 4191 c-7 -12 12 -24 25 -16 6 3 10 12 9 18 0 9 -2 9 -6 0 -2
-7 -9 -13 -14 -13 -6 0 -7 5 -4 10 3 6 4 10 1 10 -3 0 -7 -4 -11 -9z"/>
<path d="M3855 4190 c-3 -5 -1 -10 4 -10 6 0 11 5 11 10 0 6 -2 10 -4 10 -3 0
-8 -4 -11 -10z"/>
<path d="M2206 4182 c-3 -5 1 -9 9 -9 8 0 12 4 9 9 -3 4 -7 8 -9 8 -2 0 -6 -4
-9 -8z"/>
<path d="M2295 4180 c-3 -5 -1 -10 4 -10 6 0 11 5 11 10 0 6 -2 10 -4 10 -3 0
-8 -4 -11 -10z"/>
<path d="M2330 4179 c0 -5 5 -7 10 -4 6 3 10 8 10 11 0 2 -4 4 -10 4 -5 0 -10
-5 -10 -11z"/>
<path d="M2426 4178 c3 -4 9 -8 15 -8 5 0 9 4 9 8 0 5 -7 9 -15 9 -8 0 -12 -4
-9 -9z"/>
<path d="M2519 4173 c-13 -16 -12 -17 4 -4 9 7 17 15 17 17 0 8 -8 3 -21 -13z"/>
<path d="M2895 4181 c-3 -5 0 -13 6 -17 7 -4 9 -3 5 4 -3 6 2 13 11 15 16 4
16 5 1 6 -9 0 -19 -3 -23 -8z"/>
<path d="M2389 4163 c-13 -16 -12 -17 4 -4 16 13 21 21 13 21 -2 0 -10 -8 -17
-17z"/>
<path d="M2267 4159 c7 -7 15 -10 18 -7 3 3 -2 9 -12 12 -14 6 -15 5 -6 -5z"/>
<path d="M2539 4153 c-13 -16 -12 -17 4 -4 16 13 21 21 13 21 -2 0 -10 -8 -17
-17z"/>
<path d="M2640 4160 c-12 -7 -10 -9 8 -7 12 0 22 5 22 9 0 11 -12 10 -30 -2z"/>
<path d="M2710 4158 c0 -11 12 -10 30 2 12 7 10 9 -8 7 -12 0 -22 -5 -22 -9z"/>
<path d="M2752 4154 c-7 -8 -8 -14 -3 -14 10 0 25 19 20 25 -2 1 -10 -3 -17
-11z"/>
<path d="M2810 4160 c0 -5 5 -10 10 -10 6 0 10 5 10 10 0 6 -4 10 -10 10 -5 0
-10 -4 -10 -10z"/>
<path d="M2870 4161 c0 -5 7 -12 16 -15 14 -5 15 -4 4 9 -14 17 -20 19 -20 6z"/>
<path d="M4626 4158 c3 -5 10 -6 15 -3 13 9 11 12 -6 12 -8 0 -12 -4 -9 -9z"/>
<path d="M2594 4136 c1 -8 5 -18 8 -22 4 -3 5 1 4 10 -1 8 -5 18 -8 22 -4 3
-5 -1 -4 -10z"/>
<path d="M2779 4148 c-8 -36 -8 -51 0 -38 5 8 7 18 5 22 -3 4 -1 8 5 8 5 0 12
-5 14 -10 3 -6 4 -5 3 2 -2 10 -25 25 -27 16z"/>
<path d="M2670 4125 c0 -8 2 -15 4 -15 2 0 6 7 10 15 3 8 1 15 -4 15 -6 0 -10
-7 -10 -15z"/>
<path d="M2259 4128 c-5 -18 -6 -38 -1 -34 7 8 12 36 6 36 -2 0 -4 -1 -5 -2z"/>
<path d="M2516 4118 c3 -5 10 -6 15 -3 13 9 11 12 -6 12 -8 0 -12 -4 -9 -9z"/>
<path d="M2551 4127 c2 -1 13 -9 24 -17 19 -14 19 -14 6 3 -7 9 -18 17 -24 17
-6 0 -8 -1 -6 -3z"/>
<path d="M2736 4115 c4 -8 8 -15 10 -15 2 0 4 7 4 15 0 8 -4 15 -10 15 -5 0
-7 -7 -4 -15z"/>
<path d="M2713 4105 c0 -8 4 -15 9 -15 4 0 8 4 8 9 0 6 -4 12 -8 15 -5 3 -9
-1 -9 -9z"/>
<path d="M2790 4098 c0 -6 6 -8 14 -5 9 4 17 -1 20 -11 4 -13 4 -13 3 2 -2 19
-37 33 -37 14z"/>
<path d="M2300 4086 c0 -2 8 -10 18 -17 15 -13 16 -12 3 4 -13 16 -21 21 -21
13z"/>
<path d="M2555 4081 c-3 -5 -2 -12 3 -15 5 -3 9 1 9 9 0 17 -3 19 -12 6z"/>
<path d="M2740 4080 c-8 -5 -10 -10 -5 -10 6 0 17 5 25 10 8 5 11 10 5 10 -5
0 -17 -5 -25 -10z"/>
<path d="M2256 4062 c-2 -4 -1 -14 4 -22 7 -11 9 -9 7 8 -1 24 -3 26 -11 14z"/>
<path d="M2630 4060 c0 -5 5 -10 10 -10 6 0 10 5 10 10 0 6 -4 10 -10 10 -5 0
-10 -4 -10 -10z"/>
<path d="M2755 4060 c-3 -5 -1 -10 4 -10 6 0 11 5 11 10 0 6 -2 10 -4 10 -3 0
-8 -4 -11 -10z"/>
<path d="M2438 4048 c7 -9 21 -15 30 -13 9 1 24 -3 32 -9 13 -9 13 -9 2 6 -7
9 -21 15 -30 13 -9 -1 -24 3 -32 9 -13 9 -13 9 -2 -6z"/>
<path d="M2718 4053 c7 -3 16 -2 19 1 4 3 -2 6 -13 5 -11 0 -14 -3 -6 -6z"/>
<path d="M2330 4020 c0 -5 5 -10 11 -10 5 0 7 5 4 10 -3 6 -8 10 -11 10 -2 0
-4 -4 -4 -10z"/>
<path d="M2370 4020 c0 -5 5 -10 11 -10 5 0 7 5 4 10 -3 6 -8 10 -11 10 -2 0
-4 -4 -4 -10z"/>
<path d="M2562 4003 c25 -27 39 -32 15 -5 -10 10 -15 21 -12 24 3 2 -2 5 -10
5 -12 0 -10 -6 7 -24z"/>
<path d="M2587 4013 c3 -7 6 -13 8 -13 2 0 5 6 8 13 3 8 -1 14 -8 14 -7 0 -11
-6 -8 -14z"/>
<path d="M2715 4010 c3 -5 8 -10 11 -10 2 0 4 5 4 10 0 6 -5 10 -11 10 -5 0
-7 -4 -4 -10z"/>
<path d="M2260 4000 c-9 -6 -10 -10 -3 -10 6 0 15 5 18 10 8 12 4 12 -15 0z"/>
<path d="M2456 3998 c3 -5 10 -6 15 -3 13 9 11 12 -6 12 -8 0 -12 -4 -9 -9z"/>
<path d="M2493 3995 c0 -8 4 -12 9 -9 5 3 6 10 3 15 -9 13 -12 11 -12 -6z"/>
<path d="M2666 3983 c-6 -14 -5 -15 5 -6 7 7 10 15 7 18 -3 3 -9 -2 -12 -12z"/>
<path d="M2710 3980 c0 -5 5 -10 10 -10 6 0 10 5 10 10 0 6 -4 10 -10 10 -5 0
-10 -4 -10 -10z"/>
<path d="M4450 3980 c0 -5 5 -10 11 -10 5 0 7 5 4 10 -3 6 -8 10 -11 10 -2 0
-4 -4 -4 -10z"/>
<path d="M2394 3960 c0 -13 4 -16 10 -10 7 7 7 13 0 20 -6 6 -10 3 -10 -10z"/>
<path d="M2313 3955 c0 -8 4 -12 9 -9 4 3 8 9 8 15 0 5 -4 9 -8 9 -5 0 -9 -7
-9 -15z"/>
<path d="M2506 3959 c2 -4 12 -6 22 -4 9 1 26 -5 37 -14 17 -14 18 -14 7 0 -6
9 -10 18 -7 20 2 3 -11 5 -30 5 -18 0 -32 -3 -29 -7z"/>
<path d="M2589 3957 c6 -8 9 -16 6 -19 -3 -2 2 -5 10 -5 13 0 13 3 -2 19 -19
21 -31 25 -14 5z"/>
<path d="M2475 3951 c-3 -5 -2 -12 3 -15 5 -3 9 1 9 9 0 17 -3 19 -12 6z"/>
<path d="M4410 3939 c0 -5 5 -7 10 -4 6 3 10 8 10 11 0 2 -4 4 -10 4 -5 0 -10
-5 -10 -11z"/>
<path d="M2534 3920 c0 -13 4 -16 10 -10 7 7 7 13 0 20 -6 6 -10 3 -10 -10z"/>
<path d="M2426 3922 c-3 -5 1 -9 9 -9 8 0 12 4 9 9 -3 4 -7 8 -9 8 -2 0 -6 -4
-9 -8z"/>
<path d="M2653 3915 c0 -8 4 -12 9 -9 5 3 6 10 3 15 -9 13 -12 11 -12 -6z"/>
<path d="M2592 3891 c7 -9 13 -18 15 -20 1 -2 1 5 0 16 0 11 -7 20 -14 20 -10
0 -10 -4 -1 -16z"/>
<path d="M4415 3900 c3 -5 8 -10 11 -10 2 0 4 5 4 10 0 6 -5 10 -11 10 -5 0
-7 -4 -4 -10z"/>
<path d="M2495 3889 c-4 -6 -5 -12 -2 -15 2 -3 7 2 10 11 7 17 1 20 -8 4z"/>
<path d="M2294 3876 c1 -8 5 -18 8 -22 4 -3 5 1 4 10 -1 8 -5 18 -8 22 -4 3
-5 -1 -4 -10z"/>
<path d="M2334 3876 c1 -8 5 -18 8 -22 4 -3 5 1 4 10 -1 8 -5 18 -8 22 -4 3
-5 -1 -4 -10z"/>
<path d="M2551 3887 c2 -1 13 -9 24 -17 19 -14 19 -14 6 3 -7 9 -18 17 -24 17
-6 0 -8 -1 -6 -3z"/>
<path d="M4460 3886 c0 -2 8 -10 18 -17 15 -13 16 -12 3 4 -13 16 -21 21 -21
13z"/>
<path d="M2510 3876 c0 -2 8 -10 18 -17 15 -13 16 -12 3 4 -13 16 -21 21 -21
13z"/>
<path d="M2550 3857 c0 -2 6 -10 14 -16 11 -9 16 -9 22 1 4 7 4 10 -1 6 -4 -4
-14 -3 -22 3 -7 6 -13 9 -13 6z"/>
<path d="M2530 3799 c0 -5 5 -7 10 -4 6 3 10 8 10 11 0 2 -4 4 -10 4 -5 0 -10
-5 -10 -11z"/>
<path d="M4320 3800 c-9 -6 -10 -10 -3 -10 6 0 15 5 18 10 8 12 4 12 -15 0z"/>
<path d="M2395 3790 c-4 -6 -11 -7 -17 -4 -7 4 -8 2 -4 -5 6 -9 11 -9 22 0 14
11 18 19 10 19 -3 0 -8 -5 -11 -10z"/>
<path d="M4296 3758 c3 -4 11 -5 19 -1 21 7 19 12 -4 10 -11 0 -18 -5 -15 -9z"/>
<path d="M4386 3758 c3 -5 10 -6 15 -3 13 9 11 12 -6 12 -8 0 -12 -4 -9 -9z"/>
<path d="M2370 3739 c0 -5 5 -7 10 -4 6 3 10 8 10 11 0 2 -4 4 -10 4 -5 0 -10
-5 -10 -11z"/>
<path d="M2315 3731 c-3 -5 -2 -12 3 -15 5 -3 9 1 9 9 0 17 -3 19 -12 6z"/>
<path d="M2596 3727 c3 -10 9 -15 12 -12 3 3 0 11 -7 18 -10 9 -11 8 -5 -6z"/>
<path d="M2830 3731 c0 -7 -4 -9 -10 -6 -6 4 -7 -1 -3 -11 6 -15 7 -15 15 1 6
9 7 19 4 22 -3 4 -6 1 -6 -6z"/>
<path d="M2870 3729 c0 -5 5 -7 10 -4 6 3 10 8 10 11 0 2 -4 4 -10 4 -5 0 -10
-5 -10 -11z"/>
<path d="M2900 3730 c0 -5 0 -13 -1 -17 0 -5 -11 -14 -25 -21 -14 -7 -22 -18
-18 -24 5 -8 2 -9 -9 -5 -10 3 -17 2 -17 -4 0 -6 7 -9 16 -7 8 2 14 7 12 11
-2 5 8 14 21 22 21 10 41 55 26 55 -3 0 -5 -4 -5 -10z"/>
<path d="M2926 3724 c-4 -9 -4 -19 -1 -22 3 -3 5 0 5 7 0 7 4 9 10 6 6 -3 7 1
4 9 -8 20 -10 20 -18 0z"/>
<path d="M3095 3732 c-9 -9 -6 -32 5 -32 5 0 7 6 4 13 -3 8 4 13 17 14 17 2
18 -1 8 -13 -10 -12 -9 -13 5 -8 9 4 15 12 13 18 -4 11 -42 17 -52 8z"/>
<path d="M2744 3715 c-18 -15 -18 -15 0 -8 15 5 17 3 11 -8 -5 -8 -4 -11 0 -6
8 7 17 37 11 37 -1 0 -11 -7 -22 -15z"/>
<path d="M2947 3699 c-10 -11 -22 -17 -27 -14 -6 4 -10 1 -10 -4 0 -13 10 -14
29 -2 9 6 22 4 36 -5 22 -14 55 -10 55 7 0 4 7 6 15 3 8 -4 12 -10 9 -15 -9
-15 6 -10 24 8 13 13 13 15 2 11 -8 -3 -23 -1 -32 3 -11 6 -22 4 -32 -6 -19
-20 -59 -3 -50 20 8 19 3 18 -19 -6z"/>
<path d="M2370 3700 c0 -5 5 -10 11 -10 5 0 7 5 4 10 -3 6 -8 10 -11 10 -2 0
-4 -4 -4 -10z"/>
<path d="M2415 3700 c-3 -5 -1 -10 4 -10 6 0 11 5 11 10 0 6 -2 10 -4 10 -3 0
-8 -4 -11 -10z"/>
<path d="M2520 3700 c-9 -6 -10 -10 -3 -10 6 0 15 5 18 10 8 12 4 12 -15 0z"/>
<path d="M2625 3700 c-3 -6 1 -7 9 -4 18 7 21 14 7 14 -6 0 -13 -4 -16 -10z"/>
<path d="M2667 3693 c3 -7 6 -13 8 -13 2 0 5 6 8 13 3 8 -1 14 -8 14 -7 0 -11
-6 -8 -14z"/>
<path d="M2780 3706 c0 -2 7 -6 15 -10 8 -3 15 -1 15 4 0 6 -7 10 -15 10 -8 0
-15 -2 -15 -4z"/>
<path d="M2836 3693 c-6 -14 -5 -15 5 -6 7 7 10 15 7 18 -3 3 -9 -2 -12 -12z"/>
<path d="M4220 3705 c0 -2 6 -8 13 -14 10 -8 14 -7 14 2 0 8 -6 14 -14 14 -7
0 -13 -1 -13 -2z"/>
<path d="M2695 3689 c-4 -6 -5 -12 -2 -15 2 -3 7 2 10 11 7 17 1 20 -8 4z"/>
<path d="M4174 3680 c0 -13 4 -16 10 -10 7 7 7 13 0 20 -6 6 -10 3 -10 -10z"/>
<path d="M2635 3680 c-3 -5 -1 -10 4 -10 6 0 11 5 11 10 0 6 -2 10 -4 10 -3 0
-8 -4 -11 -10z"/>
<path d="M2718 3678 c-8 -19 17 -33 28 -16 4 6 3 8 -4 4 -6 -3 -12 2 -14 11
-3 16 -4 17 -10 1z"/>
<path d="M2776 3675 c4 -8 8 -15 10 -15 2 0 4 7 4 15 0 8 -4 15 -10 15 -5 0
-7 -7 -4 -15z"/>
<path d="M4273 3675 c0 -8 4 -12 9 -9 5 3 6 10 3 15 -9 13 -12 11 -12 -6z"/>
<path d="M2370 3660 c0 -5 5 -10 11 -10 5 0 7 5 4 10 -3 6 -8 10 -11 10 -2 0
-4 -4 -4 -10z"/>
<path d="M2756 3654 c-3 -9 -2 -22 2 -31 6 -10 9 -5 9 16 0 35 -2 38 -11 15z"/>
<path d="M2885 3663 c6 -4 11 -17 13 -28 3 -20 2 -20 -13 -1 -8 11 -15 15 -15
9 0 -15 27 -36 34 -25 9 15 0 46 -15 50 -8 2 -10 0 -4 -5z"/>
<path d="M2933 3659 c-6 -6 -9 -17 -7 -24 3 -7 1 -16 -5 -20 -6 -3 -11 -14
-11 -23 0 -9 8 -1 19 18 10 19 17 38 14 43 -2 4 0 7 6 7 5 0 12 -5 14 -10 3
-6 4 -5 3 2 -3 17 -20 20 -33 7z"/>
<path d="M3086 3657 c3 -10 9 -15 12 -12 3 3 0 11 -7 18 -10 9 -11 8 -5 -6z"/>
<path d="M4414 3656 c1 -8 5 -18 8 -22 4 -3 5 1 4 10 -1 8 -5 18 -8 22 -4 3
-5 -1 -4 -10z"/>
<path d="M3024 3652 c-5 -4 -14 -17 -21 -28 -10 -18 -9 -25 8 -40 10 -9 22
-15 25 -11 3 3 -4 10 -15 17 -20 10 -20 12 -5 35 9 14 22 21 30 18 8 -3 14 -3
14 0 0 9 -27 15 -36 9z"/>
<path d="M4195 3650 c-4 -6 -10 -8 -14 -6 -4 3 -8 -1 -8 -9 0 -13 4 -12 19 2
18 16 22 23 14 23 -3 0 -8 -5 -11 -10z"/>
<path d="M2566 3638 c4 -5 9 -7 12 -4 3 3 15 -2 26 -11 21 -18 21 -18 3 3 -16
20 -52 30 -41 12z"/>
<path d="M2811 3634 c0 -11 3 -14 6 -6 3 7 2 16 -1 19 -3 4 -6 -2 -5 -13z"/>
<path d="M2984 3642 c3 -5 0 -12 -6 -15 -7 -2 -10 -7 -7 -11 3 -4 12 0 18 8 9
11 9 16 0 22 -7 4 -9 3 -5 -4z"/>
<path d="M3075 3628 c2 -9 -4 -26 -12 -37 -8 -12 -10 -21 -4 -21 5 0 11 6 14
13 2 6 8 9 12 5 4 -4 3 -13 -3 -21 -8 -10 -6 -16 9 -25 11 -7 19 -8 19 -2 0 5
-4 10 -10 10 -5 0 -10 5 -10 11 0 6 7 8 17 5 13 -5 11 0 -6 18 -14 15 -19 26
-13 26 7 0 12 5 12 11 0 5 -4 8 -9 4 -5 -3 -11 0 -14 7 -2 7 -3 5 -2 -4z"/>
<path d="M4270 3646 c0 -2 7 -7 16 -10 8 -3 12 -2 9 4 -6 10 -25 14 -25 6z"/>
<path d="M3113 3614 c0 -28 8 -36 26 -25 11 7 9 13 -7 29 -19 19 -19 19 -19
-4z"/>
<path d="M2686 3622 c-7 -12 -16 -65 -10 -59 3 3 6 9 6 14 0 4 4 18 9 31 8 21
5 30 -5 14z"/>
<path d="M2830 3621 c0 -6 7 -7 17 -4 10 4 14 2 9 -5 -3 -6 3 -16 14 -22 13
-7 20 -7 20 0 0 5 -7 10 -15 10 -8 0 -14 5 -12 12 1 6 -6 14 -15 16 -10 2 -18
-1 -18 -7z"/>
<path d="M3036 3619 c2 -4 -1 -9 -8 -11 -7 -3 -5 -7 6 -11 10 -4 15 -3 11 3
-3 6 -1 10 4 10 6 0 11 4 11 8 0 5 -7 9 -15 9 -8 0 -12 -4 -9 -8z"/>
<path d="M4110 3626 c0 -2 7 -7 16 -10 8 -3 12 -2 9 4 -6 10 -25 14 -25 6z"/>
<path d="M4226 3618 c3 -5 10 -6 15 -3 13 9 11 12 -6 12 -8 0 -12 -4 -9 -9z"/>
<path d="M2653 3605 c0 -8 4 -12 9 -9 5 3 6 10 3 15 -9 13 -12 11 -12 -6z"/>
<path d="M2800 3600 c0 -5 5 -10 11 -10 5 0 7 5 4 10 -3 6 -8 10 -11 10 -2 0
-4 -4 -4 -10z"/>
<path d="M2945 3600 c3 -5 11 -10 16 -10 6 0 7 5 4 10 -3 6 -11 10 -16 10 -6
0 -7 -4 -4 -10z"/>
<path d="M3160 3600 c0 -5 5 -10 10 -10 6 0 10 5 10 10 0 6 -4 10 -10 10 -5 0
-10 -4 -10 -10z"/>
<path d="M4075 3601 c-3 -5 -2 -12 3 -15 5 -3 9 1 9 9 0 17 -3 19 -12 6z"/>
<path d="M2333 3585 c0 -8 4 -12 9 -9 5 3 6 10 3 15 -9 13 -12 11 -12 -6z"/>
<path d="M2715 3590 c-4 -6 1 -7 11 -3 13 5 15 3 9 -7 -5 -9 -4 -11 4 -6 6 4
9 12 6 17 -8 12 -22 12 -30 -1z"/>
<path d="M2756 3575 c-9 -26 -7 -32 5 -12 6 10 9 21 6 23 -2 3 -7 -2 -11 -11z"/>
<path d="M2830 3580 c0 -5 5 -10 10 -10 6 0 10 5 10 10 0 6 -4 10 -10 10 -5 0
-10 -4 -10 -10z"/>
<path d="M2934 3576 c5 -16 2 -17 -21 -12 -27 5 -27 5 -5 -6 29 -15 54 4 33
25 -12 10 -13 9 -7 -7z"/>
<path d="M2974 3578 c-4 -6 0 -16 9 -23 15 -11 15 -13 0 -27 -21 -21 -8 -42
17 -28 10 5 25 8 32 7 7 -2 10 -2 6 0 -4 2 -4 12 -1 21 4 15 3 15 -6 2 -6 -8
-11 -11 -11 -7 0 5 -7 1 -16 -8 -9 -9 -19 -13 -23 -10 -3 4 5 15 18 26 13 10
18 19 12 19 -7 0 -9 4 -6 10 3 6 -1 7 -10 4 -11 -5 -14 -2 -9 10 7 18 -1 22
-12 4z"/>
<path d="M4153 3570 c1 -21 10 -18 13 5 1 8 -2 15 -6 15 -5 0 -8 -9 -7 -20z"/>
<path d="M4370 3579 c0 -5 5 -7 10 -4 6 3 10 8 10 11 0 2 -4 4 -10 4 -5 0 -10
-5 -10 -11z"/>
<path d="M2610 3576 c0 -2 8 -10 18 -17 15 -13 16 -12 3 4 -13 16 -21 21 -21
13z"/>
<path d="M4030 3569 c0 -5 5 -7 10 -4 6 3 10 8 10 11 0 2 -4 4 -10 4 -5 0 -10
-5 -10 -11z"/>
<path d="M2593 3553 c0 -11 7 -20 14 -20 10 0 10 4 1 16 -7 9 -13 18 -15 20
-1 2 -1 -5 0 -16z"/>
<path d="M2696 3562 c-3 -5 1 -9 9 -9 8 0 12 4 9 9 -3 4 -7 8 -9 8 -2 0 -6 -4
-9 -8z"/>
<path d="M2787 3554 c3 -7 9 -14 14 -14 14 0 10 17 -5 23 -10 4 -13 1 -9 -9z"/>
<path d="M4110 3563 c0 -6 8 -17 18 -24 16 -13 16 -13 2 6 -8 11 -16 22 -17
24 -2 2 -3 0 -3 -6z"/>
<path d="M4470 3559 c0 -5 5 -7 10 -4 6 3 10 8 10 11 0 2 -4 4 -10 4 -5 0 -10
-5 -10 -11z"/>
<path d="M2870 3550 c0 -5 6 -10 14 -10 16 0 16 -31 1 -43 -6 -5 -4 -7 4 -5
21 6 21 47 -1 59 -12 6 -18 6 -18 -1z"/>
<path d="M3047 3543 c11 -10 18 -23 16 -30 -2 -6 1 -14 6 -18 7 -4 8 0 4 11
-4 12 -3 15 5 10 21 -13 13 5 -10 25 -29 23 -48 25 -21 2z"/>
<path d="M2950 3540 c0 -5 5 -10 10 -10 6 0 10 5 10 10 0 6 -4 10 -10 10 -5 0
-10 -4 -10 -10z"/>
<path d="M4074 3536 c1 -8 5 -18 8 -22 4 -3 5 1 4 10 -1 8 -5 18 -8 22 -4 3
-5 -1 -4 -10z"/>
<path d="M4227 3539 c7 -7 15 -10 18 -7 3 3 -2 9 -12 12 -14 6 -15 5 -6 -5z"/>
<path d="M2708 3533 c7 -3 16 -2 19 1 4 3 -2 6 -13 5 -11 0 -14 -3 -6 -6z"/>
<path d="M2756 3525 c23 -17 34 -19 34 -4 0 5 -4 8 -9 4 -5 -3 -12 -1 -16 5
-3 5 -11 10 -18 10 -6 0 -2 -7 9 -15z"/>
<path d="M4195 3530 c-4 -6 -10 -8 -15 -5 -5 3 -11 1 -14 -4 -8 -13 22 -7 36
7 7 7 9 12 6 12 -4 0 -10 -5 -13 -10z"/>
<path d="M2005 3520 c-3 -6 1 -7 9 -4 18 7 21 14 7 14 -6 0 -13 -4 -16 -10z"/>
<path d="M2355 3521 c-3 -5 -2 -12 3 -15 5 -3 9 1 9 9 0 17 -3 19 -12 6z"/>
<path d="M2510 3515 c5 -7 6 -16 2 -21 -4 -5 -3 -5 2 -1 15 12 15 34 0 34 -9
0 -11 -4 -4 -12z"/>
<path d="M2553 3523 c4 -3 1 -13 -6 -22 -11 -14 -10 -14 5 -2 16 12 16 31 1
31 -4 0 -3 -3 0 -7z"/>
<path d="M2830 3521 c0 -5 7 -14 16 -19 9 -5 15 -13 14 -18 -1 -5 4 -10 12
-12 11 -3 11 -2 0 6 -8 5 -13 12 -12 16 0 4 -6 14 -15 22 -8 9 -15 11 -15 5z"/>
<path d="M2850 3526 c0 -2 7 -7 16 -10 8 -3 12 -2 9 4 -6 10 -25 14 -25 6z"/>
<path d="M2920 3520 c0 -5 5 -10 10 -10 6 0 10 5 10 10 0 6 -4 10 -10 10 -5 0
-10 -4 -10 -10z"/>
<path d="M3976 3515 c4 -8 8 -15 10 -15 2 0 4 7 4 15 0 8 -4 15 -10 15 -5 0
-7 -7 -4 -15z"/>
<path d="M4273 3513 c0 -9 4 -10 14 -2 7 6 13 12 13 14 0 1 -6 2 -13 2 -8 0
-14 -6 -14 -14z"/>
<path d="M2666 3502 c6 -4 10 -19 9 -34 -1 -15 2 -25 6 -23 4 3 6 13 4 23 -1
9 1 22 6 27 5 7 0 11 -14 12 -12 1 -17 -1 -11 -5z"/>
<path d="M2795 3500 c-3 -5 -3 -10 2 -10 4 0 1 -5 -7 -11 -13 -9 -13 -10 0 -6
8 2 14 10 12 17 -2 8 3 10 13 6 9 -3 13 -2 10 4 -8 13 -22 13 -30 0z"/>
<path d="M2954 3498 c3 -10 -2 -21 -12 -27 -9 -5 -15 -12 -12 -14 3 -3 13 1
23 8 15 11 17 17 7 32 -10 15 -11 16 -6 1z"/>
<path d="M3955 3500 c-3 -5 -1 -10 4 -10 6 0 11 5 11 10 0 6 -2 10 -4 10 -3 0
-8 -4 -11 -10z"/>
<path d="M4473 3495 c0 -8 4 -12 9 -9 5 3 6 10 3 15 -9 13 -12 11 -12 -6z"/>
<path d="M2574 3489 c-3 -6 -2 -15 3 -20 5 -5 9 -1 9 11 0 23 -2 24 -12 9z"/>
<path d="M2609 3483 c-13 -16 -12 -17 4 -4 16 13 21 21 13 21 -2 0 -10 -8 -17
-17z"/>
<path d="M4083 3481 c-22 -18 -22 -19 -3 -24 11 -3 17 -1 14 4 -3 6 0 16 6 24
17 20 10 18 -17 -4z"/>
<path d="M4177 3493 c-10 -9 -9 -23 1 -23 5 0 9 7 9 15 0 17 -1 18 -10 8z"/>
<path d="M2339 3488 c-5 -18 -6 -38 -1 -34 7 8 12 36 6 36 -2 0 -4 -1 -5 -2z"/>
<path d="M2750 3481 c0 -6 4 -13 10 -16 6 -3 7 1 4 9 -7 18 -14 21 -14 7z"/>
<path d="M2900 3480 c-18 -12 -2 -12 25 0 13 6 15 9 5 9 -8 0 -22 -4 -30 -9z"/>
<path d="M3991 3473 c7 -12 15 -20 18 -17 3 2 -3 12 -13 22 -17 16 -18 16 -5
-5z"/>
<path d="M2836 3467 c3 -10 9 -15 12 -12 3 3 0 11 -7 18 -10 9 -11 8 -5 -6z"/>
<path d="M4113 3467 c0 -8 6 -14 14 -14 9 0 10 4 2 14 -6 7 -12 13 -14 13 -1
0 -2 -6 -2 -13z"/>
<path d="M2626 3462 c-3 -5 1 -9 9 -9 8 0 12 4 9 9 -3 4 -7 8 -9 8 -2 0 -6 -4
-9 -8z"/>
<path d="M2816 3457 c3 -10 9 -15 12 -12 3 3 0 11 -7 18 -10 9 -11 8 -5 -6z"/>
<path d="M4336 3458 c3 -5 10 -6 15 -3 13 9 11 12 -6 12 -8 0 -12 -4 -9 -9z"/>
<path d="M2730 3451 c-8 -6 -17 -8 -21 -5 -4 2 -11 -1 -15 -7 -5 -8 -3 -9 6
-4 10 6 12 4 7 -8 -4 -11 -2 -14 9 -10 8 3 12 8 10 11 -3 3 2 11 12 18 19 15
14 18 -8 5z"/>
<path d="M2876 3445 c-9 -26 -7 -32 5 -12 6 10 9 21 6 23 -2 3 -7 -2 -11 -11z"/>
<path d="M2911 3444 c0 -11 3 -14 6 -6 3 7 2 16 -1 19 -3 4 -6 -2 -5 -13z"/>
<path d="M3915 3450 c3 -5 8 -10 11 -10 2 0 4 5 4 10 0 6 -5 10 -11 10 -5 0
-7 -4 -4 -10z"/>
<path d="M3966 3444 c-20 -19 -20 -25 -2 -18 8 3 17 12 20 20 7 18 1 18 -18
-2z"/>
<path d="M4395 3451 c-3 -5 -2 -12 3 -15 5 -3 9 1 9 9 0 17 -3 19 -12 6z"/>
<path d="M4073 3443 c4 -3 1 -13 -6 -22 -11 -14 -10 -14 5 -2 16 12 16 31 1
31 -4 0 -3 -3 0 -7z"/>
<path d="M2589 3423 c-13 -16 -12 -17 4 -4 16 13 21 21 13 21 -2 0 -10 -8 -17
-17z"/>
<path d="M3999 3435 c-1 -3 -2 -8 -3 -12 -1 -5 -5 -15 -10 -23 -7 -12 -6 -13
4 -3 13 12 23 43 14 43 -2 0 -5 -2 -5 -5z"/>
<path d="M2339 3428 c-5 -18 -6 -38 -1 -34 7 8 12 36 6 36 -2 0 -4 -1 -5 -2z"/>
<path d="M2756 3415 c-3 -9 -10 -13 -16 -10 -5 3 -10 1 -10 -4 0 -6 4 -11 9
-11 12 0 35 29 29 36 -3 3 -8 -2 -12 -11z"/>
<path d="M2894 3422 c4 -7 1 -12 -6 -12 -10 0 -10 -2 0 -9 8 -4 13 -12 12 -17
-2 -13 30 -18 41 -7 6 6 3 15 -8 24 -16 13 -17 12 -4 -3 12 -16 11 -18 -7 -18
-15 0 -20 5 -17 20 2 11 -1 23 -7 26 -7 4 -8 2 -4 -4z"/>
<path d="M4290 3420 c0 -5 5 -10 11 -10 5 0 7 5 4 10 -3 6 -8 10 -11 10 -2 0
-4 -4 -4 -10z"/>
<path d="M4334 3422 c4 -3 14 -7 22 -8 9 -1 13 0 10 4 -4 3 -14 7 -22 8 -9 1
-13 0 -10 -4z"/>
<path d="M2609 3403 c-8 -9 -9 -14 -2 -10 6 4 13 1 16 -5 3 -7 4 -3 4 10 -1
26 -1 26 -18 5z"/>
<path d="M2791 3393 c7 -12 15 -20 18 -17 3 2 -3 12 -13 22 -17 16 -18 16 -5
-5z"/>
<path d="M2820 3399 c0 -5 5 -7 10 -4 6 3 10 8 10 11 0 2 -4 4 -10 4 -5 0 -10
-5 -10 -11z"/>
<path d="M2850 3400 c0 -5 5 -10 10 -10 6 0 10 5 10 10 0 6 -4 10 -10 10 -5 0
-10 -4 -10 -10z"/>
<path d="M3930 3398 c0 -6 3 -8 7 -5 3 4 13 1 22 -6 14 -11 14 -10 2 6 -15 20
-31 22 -31 5z"/>
<path d="M4014 3398 c-3 -5 -3 -12 0 -15 3 -4 6 -1 6 5 0 6 10 9 21 7 12 -3
19 -1 15 2 -11 11 -35 12 -42 1z"/>
<path d="M4390 3405 c0 -5 5 -17 10 -25 5 -8 10 -10 10 -5 0 6 -5 17 -10 25
-5 8 -10 11 -10 5z"/>
<path d="M2560 3380 c-9 -6 -10 -10 -3 -10 6 0 15 5 18 10 8 12 4 12 -15 0z"/>
<path d="M2665 3380 c-3 -6 1 -7 9 -4 18 7 21 14 7 14 -6 0 -13 -4 -16 -10z"/>
<path d="M3876 3373 c-6 -14 -5 -15 5 -6 7 7 10 15 7 18 -3 3 -9 -2 -12 -12z"/>
<path d="M4240 3380 c-12 -7 -10 -9 7 -7 12 0 19 5 17 9 -6 10 -6 10 -24 -2z"/>
<path d="M4290 3380 c0 -5 5 -10 11 -10 5 0 7 5 4 10 -3 6 -8 10 -11 10 -2 0
-4 -4 -4 -10z"/>
<path d="M4335 3379 c-3 -4 2 -6 10 -5 21 3 28 13 10 13 -9 0 -18 -4 -20 -8z"/>
<path d="M2356 3367 c3 -10 9 -15 12 -12 3 3 0 11 -7 18 -10 9 -11 8 -5 -6z"/>
<path d="M2430 3376 c0 -2 8 -10 18 -17 15 -13 16 -12 3 4 -13 16 -21 21 -21
13z"/>
<path d="M2870 3370 c0 -5 5 -10 11 -10 5 0 7 5 4 10 -3 6 -8 10 -11 10 -2 0
-4 -4 -4 -10z"/>
<path d="M3921 3364 c0 -11 3 -14 6 -6 3 7 2 16 -1 19 -3 4 -6 -2 -5 -13z"/>
<path d="M3980 3371 c0 -7 -5 -9 -12 -5 -7 4 -8 3 -4 -5 4 -6 12 -8 18 -5 7 5
9 1 5 -9 -4 -11 -2 -14 9 -10 12 4 12 8 2 22 -7 9 -14 18 -15 20 -2 2 -3 -1
-3 -8z"/>
<path d="M4177 3373 c-10 -9 -9 -23 1 -23 5 0 9 7 9 15 0 17 -1 18 -10 8z"/>
<path d="M2473 3355 c0 -8 4 -12 9 -9 4 3 8 9 8 15 0 5 -4 9 -8 9 -5 0 -9 -7
-9 -15z"/>
<path d="M2616 3353 c-6 -14 -5 -15 5 -6 7 7 10 15 7 18 -3 3 -9 -2 -12 -12z"/>
<path d="M2676 3362 c-3 -5 1 -9 9 -9 8 0 12 4 9 9 -3 4 -7 8 -9 8 -2 0 -6 -4
-9 -8z"/>
<path d="M2744 3355 c-18 -15 -18 -15 0 -8 15 5 17 3 11 -8 -5 -8 -4 -11 0 -6
8 7 17 37 11 37 -1 0 -11 -7 -22 -15z"/>
<path d="M2810 3360 c-9 -6 -10 -10 -3 -10 6 0 15 5 18 10 8 12 4 12 -15 0z"/>
<path d="M3812 3353 c2 -9 13 -18 25 -19 25 -4 39 11 22 22 -7 4 -9 3 -5 -4 4
-7 -2 -10 -14 -9 -12 1 -19 6 -16 14 3 7 1 13 -5 13 -6 0 -9 -7 -7 -17z"/>
<path d="M3901 3354 c0 -11 3 -14 6 -6 3 7 2 16 -1 19 -3 4 -6 -2 -5 -13z"/>
<path d="M4099 3353 c-12 -16 -12 -17 2 -6 9 7 19 10 22 6 4 -3 7 -1 7 5 0 17
-16 15 -31 -5z"/>
<path d="M2314 3342 c4 -3 14 -7 22 -8 9 -1 13 0 10 4 -4 3 -14 7 -22 8 -9 1
-13 0 -10 -4z"/>
<path d="M2834 3335 c3 -23 12 -26 13 -5 1 11 -2 20 -7 20 -4 0 -7 -7 -6 -15z"/>
<path d="M2876 3335 c-17 -13 -18 -15 -3 -15 9 0 17 5 17 11 0 5 5 7 12 3 7
-4 8 -3 4 4 -9 14 -7 15 -30 -3z"/>
<path d="M3876 3334 c-3 -9 -2 -22 2 -31 6 -10 9 -5 9 16 0 35 -2 38 -11 15z"/>
<path d="M4290 3339 c0 -5 5 -7 10 -4 6 3 10 8 10 11 0 2 -4 4 -10 4 -5 0 -10
-5 -10 -11z"/>
<path d="M2575 3330 c-4 -6 -11 -7 -17 -4 -7 4 -8 2 -4 -5 6 -9 11 -9 22 0 14
11 18 19 10 19 -3 0 -8 -5 -11 -10z"/>
<path d="M2668 3333 c7 -3 16 -2 19 1 4 3 -2 6 -13 5 -11 0 -14 -3 -6 -6z"/>
<path d="M2470 3325 c0 -7 30 -13 34 -7 3 4 -4 9 -15 9 -10 1 -19 0 -19 -2z"/>
<path d="M2710 3320 c0 -5 5 -10 10 -10 6 0 10 5 10 10 0 6 -4 10 -10 10 -5 0
-10 -4 -10 -10z"/>
<path d="M2770 3320 c0 -5 5 -10 10 -10 6 0 10 5 10 10 0 6 -4 10 -10 10 -5 0
-10 -4 -10 -10z"/>
<path d="M3787 3313 c3 -7 6 -13 8 -13 2 0 5 6 8 13 3 8 -1 14 -8 14 -7 0 -11
-6 -8 -14z"/>
<path d="M3905 3319 c-4 -6 -5 -12 -2 -15 2 -3 7 2 10 11 7 17 1 20 -8 4z"/>
<path d="M4190 3321 c0 -6 4 -13 10 -16 6 -3 7 1 4 9 -7 18 -14 21 -14 7z"/>
<path d="M2801 3313 c-1 -17 16 -25 25 -12 4 7 3 9 -4 5 -5 -3 -13 0 -15 6 -4
9 -6 10 -6 1z"/>
<path d="M3830 3310 c0 -6 7 -10 15 -10 8 0 15 2 15 4 0 2 -7 6 -15 10 -8 3
-15 1 -15 -4z"/>
<path d="M2293 3295 c0 -8 4 -12 9 -9 5 3 6 10 3 15 -9 13 -12 11 -12 -6z"/>
<path d="M2664 3288 c0 -10 1 -18 3 -18 1 0 7 8 12 18 7 13 6 19 -2 19 -7 0
-13 -9 -13 -19z"/>
<path d="M2835 3290 c-16 -11 -25 -20 -20 -20 10 0 64 39 55 40 -3 0 -18 -9
-35 -20z"/>
<path d="M3996 3298 c3 -5 10 -6 15 -3 13 9 11 12 -6 12 -8 0 -12 -4 -9 -9z"/>
<path d="M4030 3306 c0 -2 7 -7 16 -10 8 -3 12 -2 9 4 -6 10 -25 14 -25 6z"/>
<path d="M2534 3280 c0 -13 4 -16 10 -10 7 7 7 13 0 20 -6 6 -10 3 -10 -10z"/>
<path d="M2733 3285 c0 -7 6 -11 14 -8 7 3 13 6 13 8 0 2 -6 5 -13 8 -8 3 -14
-1 -14 -8z"/>
<path d="M3773 3283 c9 -8 57 -13 57 -6 0 5 -14 9 -31 9 -16 1 -28 0 -26 -3z"/>
<path d="M3860 3280 c8 -5 20 -10 25 -10 6 0 3 5 -5 10 -8 5 -19 10 -25 10 -5
0 -3 -5 5 -10z"/>
<path d="M3941 3274 c0 -11 3 -14 6 -6 3 7 2 16 -1 19 -3 4 -6 -2 -5 -13z"/>
<path d="M4012 3281 c-11 -7 -11 -9 0 -14 9 -3 15 1 15 9 0 8 -1 14 -1 14 -1
0 -7 -4 -14 -9z"/>
<path d="M4116 3273 c-6 -14 -5 -15 5 -6 7 7 10 15 7 18 -3 3 -9 -2 -12 -12z"/>
<path d="M2790 3271 c0 -7 -5 -9 -12 -5 -7 5 -8 3 -3 -5 5 -9 10 -10 18 -2 6
6 8 14 4 18 -4 3 -7 1 -7 -6z"/>
<path d="M2594 3239 c1 -15 4 -31 8 -35 4 -4 5 4 3 16 -3 13 0 29 5 35 7 8 5
12 -4 12 -8 0 -13 -11 -12 -28z"/>
<path d="M3760 3266 c0 -2 7 -7 16 -10 8 -3 12 -2 9 4 -6 10 -25 14 -25 6z"/>
<path d="M3830 3248 c-12 -22 -12 -22 6 -6 10 10 15 20 12 24 -4 3 -12 -5 -18
-18z"/>
<path d="M4065 3259 c-3 -4 2 -6 10 -5 21 3 28 13 10 13 -9 0 -18 -4 -20 -8z"/>
<path d="M4295 3260 c3 -5 8 -10 11 -10 2 0 4 5 4 10 0 6 -5 10 -11 10 -5 0
-7 -4 -4 -10z"/>
<path d="M4326 3258 c3 -5 10 -6 15 -3 13 9 11 12 -6 12 -8 0 -12 -4 -9 -9z"/>
<path d="M3797 3247 c-3 -8 -2 -20 3 -26 5 -9 8 -4 8 13 0 29 -3 32 -11 13z"/>
<path d="M3860 3251 c0 -6 4 -13 10 -16 6 -3 7 1 4 9 -7 18 -14 21 -14 7z"/>
<path d="M3910 3250 c-9 -6 -10 -10 -3 -10 6 0 15 5 18 10 8 12 4 12 -15 0z"/>
<path d="M2550 3243 c0 -6 8 -17 18 -24 16 -13 16 -13 2 6 -8 11 -16 22 -17
24 -2 2 -3 0 -3 -6z"/>
<path d="M2650 3237 c0 -5 6 -7 13 -4 6 2 20 0 29 -5 13 -6 16 -5 12 5 -5 14
-54 18 -54 4z"/>
<path d="M4016 3233 c-6 -14 -5 -15 5 -6 7 7 10 15 7 18 -3 3 -9 -2 -12 -12z"/>
<path d="M4113 3230 c1 -21 10 -18 13 5 1 8 -2 15 -6 15 -5 0 -8 -9 -7 -20z"/>
<path d="M4154 3228 c-19 -23 -19 -23 2 -5 11 9 24 14 29 10 4 -5 5 -2 1 5 -9
16 -10 16 -32 -10z"/>
<path d="M3708 3233 c7 -3 16 -2 19 1 4 3 -2 6 -13 5 -11 0 -14 -3 -6 -6z"/>
<path d="M3955 3231 c-6 -11 13 -26 22 -17 4 3 1 6 -6 6 -7 0 -9 5 -6 10 3 6
4 10 1 10 -3 0 -7 -4 -11 -9z"/>
<path d="M2330 3220 c0 -5 5 -10 11 -10 5 0 7 5 4 10 -3 6 -8 10 -11 10 -2 0
-4 -4 -4 -10z"/>
<path d="M2765 3219 c-4 -6 -4 -13 -1 -16 3 -4 6 -1 6 6 0 7 5 9 12 5 7 -4 8
-3 4 4 -9 15 -13 15 -21 1z"/>
<path d="M3737 3222 c-3 -4 0 -16 4 -27 9 -18 9 -18 5 3 -3 17 0 22 12 20 10
-2 20 -10 24 -18 6 -11 7 -10 5 4 -2 19 -42 33 -50 18z"/>
<path d="M3865 3215 c11 -9 19 -19 18 -23 -1 -4 0 -9 2 -10 2 -2 2 4 1 13 -1
10 -11 22 -22 27 -18 9 -17 8 1 -7z"/>
<path d="M2719 3189 l-24 -20 28 17 c15 9 27 18 27 20 0 8 -8 4 -31 -17z"/>
<path d="M3660 3200 c0 -5 5 -10 11 -10 5 0 7 5 4 10 -3 6 -8 10 -11 10 -2 0
-4 -4 -4 -10z"/>
<path d="M3697 3196 c-3 -8 -3 -17 0 -20 10 -10 33 -7 33 4 0 5 -8 6 -17 3
-16 -6 -16 -5 -4 10 7 9 9 17 3 17 -5 0 -12 -6 -15 -14z"/>
<path d="M3828 3203 c7 -3 16 -2 19 1 4 3 -2 6 -13 5 -11 0 -14 -3 -6 -6z"/>
<path d="M3926 3198 c3 -4 9 -8 15 -8 5 0 9 4 9 8 0 5 -7 9 -15 9 -8 0 -12 -4
-9 -9z"/>
<path d="M4070 3201 c0 -6 4 -13 10 -16 6 -3 7 1 4 9 -7 18 -14 21 -14 7z"/>
<path d="M4239 3193 c-13 -16 -12 -17 4 -4 16 13 21 21 13 21 -2 0 -10 -8 -17
-17z"/>
<path d="M2513 3185 c0 -8 4 -12 9 -9 5 3 6 10 3 15 -9 13 -12 11 -12 -6z"/>
<path d="M2430 3186 c0 -2 7 -7 16 -10 8 -3 12 -2 9 4 -6 10 -25 14 -25 6z"/>
<path d="M2475 3180 c3 -5 8 -10 11 -10 2 0 4 5 4 10 0 6 -5 10 -11 10 -5 0
-7 -4 -4 -10z"/>
<path d="M3640 3183 c0 -7 5 -15 10 -18 6 -4 8 -11 5 -16 -4 -5 1 -12 9 -15 9
-3 13 -11 9 -17 -3 -6 -1 -7 5 -3 17 10 15 26 -4 26 -8 0 -13 3 -10 8 2 4 -2
16 -10 27 -8 10 -14 14 -14 8z"/>
<path d="M3750 3165 c-7 -13 -18 -23 -23 -22 -6 1 -12 -7 -13 -18 -2 -15 -2
-16 2 -2 3 9 9 15 14 12 8 -5 45 44 37 51 -2 2 -10 -7 -17 -21z"/>
<path d="M3838 3183 c7 -3 16 -2 19 1 4 3 -2 6 -13 5 -11 0 -14 -3 -6 -6z"/>
<path d="M3988 3183 c10 -4 9 -10 -5 -26 -12 -15 -13 -18 -2 -9 9 6 19 10 22
7 4 -3 5 -2 2 2 -3 3 -1 11 5 17 6 8 2 12 -13 13 -12 0 -16 -1 -9 -4z"/>
<path d="M3682 3164 c10 -10 20 -16 22 -13 3 3 -5 11 -17 18 -21 13 -21 12 -5
-5z"/>
<path d="M4054 3160 c0 -13 4 -16 10 -10 7 7 7 13 0 20 -6 6 -10 3 -10 -10z"/>
<path d="M2299 3168 c-5 -18 -6 -38 -1 -34 7 8 12 36 6 36 -2 0 -4 -1 -5 -2z"/>
<path d="M2599 3153 c-12 -16 -12 -17 2 -6 9 7 20 9 24 5 5 -4 5 -1 1 6 -9 16
-11 15 -27 -5z"/>
<path d="M2676 3162 c-3 -5 1 -9 9 -9 8 0 12 4 9 9 -3 4 -7 8 -9 8 -2 0 -6 -4
-9 -8z"/>
<path d="M3626 3157 c3 -10 9 -15 12 -12 3 3 0 11 -7 18 -10 9 -11 8 -5 -6z"/>
<path d="M3810 3160 c0 -5 5 -10 10 -10 6 0 10 5 10 10 0 6 -4 10 -10 10 -5 0
-10 -4 -10 -10z"/>
<path d="M3867 3159 c7 -9 10 -19 6 -22 -3 -4 -1 -7 5 -7 17 0 15 16 -5 31
-16 12 -17 12 -6 -2z"/>
<path d="M4135 3160 c3 -5 8 -10 11 -10 2 0 4 5 4 10 0 6 -5 10 -11 10 -5 0
-7 -4 -4 -10z"/>
<path d="M2545 3139 c-3 -4 2 -6 10 -5 21 3 28 13 10 13 -9 0 -18 -4 -20 -8z"/>
<path d="M3756 3133 c-6 -14 -5 -15 5 -6 7 7 10 15 7 18 -3 3 -9 -2 -12 -12z"/>
<path d="M4295 3140 c3 -5 8 -10 11 -10 2 0 4 5 4 10 0 6 -5 10 -11 10 -5 0
-7 -4 -4 -10z"/>
<path d="M2615 3130 c-4 -6 -10 -8 -15 -5 -5 3 -11 1 -14 -4 -8 -13 22 -7 36
7 7 7 9 12 6 12 -4 0 -10 -5 -13 -10z"/>
<path d="M2675 3129 c-4 -6 -5 -12 -2 -15 2 -3 7 2 10 11 7 17 1 20 -8 4z"/>
<path d="M3827 3126 c-4 -9 -3 -15 2 -11 5 3 11 0 13 -7 3 -7 7 -5 11 6 4 9 3
15 -2 11 -5 -3 -11 0 -13 7 -3 7 -7 5 -11 -6z"/>
<path d="M4009 3123 c-13 -16 -12 -17 4 -4 9 7 17 15 17 17 0 8 -8 3 -21 -13z"/>
<path d="M4099 3138 c-5 -18 -6 -38 -1 -34 7 8 12 36 6 36 -2 0 -4 -1 -5 -2z"/>
<path d="M4133 3125 c0 -8 4 -15 9 -15 4 0 8 4 8 9 0 6 -4 12 -8 15 -5 3 -9
-1 -9 -9z"/>
<path d="M3600 3121 c-8 -6 -18 -7 -24 -4 -5 3 -6 1 -2 -5 4 -7 2 -12 -5 -12
-7 0 -10 -2 -7 -6 3 -3 21 4 39 15 19 12 30 21 24 21 -5 0 -17 -4 -25 -9z"/>
<path d="M3780 3115 c0 -8 2 -15 4 -15 2 0 6 7 10 15 3 8 1 15 -4 15 -6 0 -10
-7 -10 -15z"/>
<path d="M4033 3106 l-18 -21 24 20 c13 11 25 19 28 17 3 -2 7 -2 9 1 2 2 -3
4 -11 4 -8 0 -23 -10 -32 -21z"/>
<path d="M2230 3101 c0 -6 4 -13 10 -16 6 -3 7 1 4 9 -7 18 -14 21 -14 7z"/>
<path d="M2295 3100 c-3 -5 -1 -10 4 -10 6 0 11 5 11 10 0 6 -2 10 -4 10 -3 0
-8 -4 -11 -10z"/>
<path d="M2474 3088 l-19 -23 23 19 c21 18 27 26 19 26 -2 0 -12 -10 -23 -22z"/>
<path d="M2519 3108 c-6 -21 -5 -38 1 -38 5 0 8 9 7 20 -1 17 -5 26 -8 18z"/>
<path d="M3619 3103 c-1 -4 -1 -12 0 -17 1 -5 -5 -6 -14 -3 -8 4 -15 2 -15 -4
0 -6 8 -9 18 -7 9 2 16 10 15 16 -2 7 6 12 17 12 11 0 19 -6 18 -12 -2 -8 6
-12 20 -11 13 2 21 -1 18 -6 -6 -9 35 -41 51 -41 4 0 -4 8 -18 18 -15 9 -25
25 -23 34 1 10 -3 21 -8 25 -6 3 -8 1 -5 -4 4 -6 0 -14 -9 -17 -22 -8 -24 -8
-21 6 1 7 -8 14 -20 16 -13 2 -24 0 -24 -5z"/>
<path d="M3750 3100 c0 -5 5 -10 10 -10 6 0 10 5 10 10 0 6 -4 10 -10 10 -5 0
-10 -4 -10 -10z"/>
<path d="M2566 3085 c-11 -8 -15 -15 -9 -15 6 0 16 7 23 15 16 19 11 19 -14 0z"/>
<path d="M3933 3077 c-1 -12 1 -17 5 -11 4 6 19 10 34 9 15 -1 25 2 23 6 -3 4
-13 6 -23 4 -9 -1 -22 1 -27 6 -7 5 -11 0 -12 -14z"/>
<path d="M4046 3085 c-11 -8 -15 -15 -9 -15 6 0 16 7 23 15 16 19 11 19 -14 0z"/>
<path d="M3730 3080 c0 -5 5 -10 11 -10 5 0 7 5 4 10 -3 6 -8 10 -11 10 -2 0
-4 -4 -4 -10z"/>
<path d="M3775 3080 c-3 -5 -1 -10 4 -10 6 0 11 5 11 10 0 6 -2 10 -4 10 -3 0
-8 -4 -11 -10z"/>
<path d="M4116 3082 c-3 -5 1 -9 9 -9 8 0 12 4 9 9 -3 4 -7 8 -9 8 -2 0 -6 -4
-9 -8z"/>
<path d="M2592 3067 c-8 -10 -6 -13 7 -13 11 0 17 6 14 13 -3 7 -6 13 -8 13
-1 0 -7 -6 -13 -13z"/>
<path d="M3548 3073 c6 -2 10 -9 7 -14 -4 -5 1 -6 10 -2 15 5 15 3 4 -15 -7
-11 -18 -20 -23 -19 -6 1 -11 -8 -11 -20 0 -13 4 -23 10 -22 5 0 13 -8 17 -18
7 -16 8 -16 5 2 -2 11 -9 19 -15 18 -7 -2 -12 6 -12 18 0 11 4 18 9 15 5 -3
16 5 25 19 15 23 15 25 -3 35 -11 5 -23 10 -28 9 -4 0 -2 -3 5 -6z"/>
<path d="M3830 3069 c0 -6 -5 -7 -12 -3 -6 4 -8 3 -5 -4 4 -5 16 -8 27 -5 24
6 25 9 5 17 -8 3 -15 1 -15 -5z"/>
<path d="M3525 3059 c4 -10 2 -20 -4 -24 -6 -3 -11 -11 -11 -18 0 -6 7 -1 16
12 13 17 14 25 5 34 -9 9 -11 8 -6 -4z"/>
<path d="M3630 3060 c0 -5 5 -10 10 -10 6 0 10 5 10 10 0 6 -4 10 -10 10 -5 0
-10 -4 -10 -10z"/>
<path d="M4210 3059 c0 -5 5 -7 10 -4 6 3 10 8 10 11 0 2 -4 4 -10 4 -5 0 -10
-5 -10 -11z"/>
<path d="M4336 3062 c-2 -4 -1 -14 4 -22 7 -11 9 -9 7 8 -1 24 -3 26 -11 14z"/>
<path d="M3748 3053 c7 -3 16 -2 19 1 4 3 -2 6 -13 5 -11 0 -14 -3 -6 -6z"/>
<path d="M3780 3056 c0 -2 7 -7 16 -10 8 -3 12 -2 9 4 -6 10 -25 14 -25 6z"/>
<path d="M2259 3048 c-5 -18 -6 -38 -1 -34 7 8 12 36 6 36 -2 0 -4 -1 -5 -2z"/>
<path d="M3490 3040 c-9 -6 -10 -10 -3 -10 6 0 15 5 18 10 8 12 4 12 -15 0z"/>
<path d="M3595 3040 c-9 -14 4 -32 17 -24 7 5 9 1 5 -9 -3 -10 -2 -17 4 -17 6
0 9 8 7 18 -2 9 -10 16 -16 15 -16 -4 -15 14 1 20 9 4 9 6 0 6 -6 1 -15 -3
-18 -9z"/>
<path d="M3675 3040 c27 -12 43 -12 25 0 -8 5 -22 9 -30 9 -10 0 -8 -3 5 -9z"/>
<path d="M3913 3033 c0 -11 7 -20 14 -20 10 0 10 4 1 16 -7 9 -13 18 -15 20
-1 2 -1 -5 0 -16z"/>
<path d="M3936 3038 c3 -5 10 -6 15 -3 13 9 11 12 -6 12 -8 0 -12 -4 -9 -9z"/>
<path d="M3999 3038 c-5 -16 -6 -68 0 -68 4 0 7 16 7 35 0 29 -3 43 -7 33z"/>
<path d="M2290 3020 c0 -5 5 -10 11 -10 5 0 7 5 4 10 -3 6 -8 10 -11 10 -2 0
-4 -4 -4 -10z"/>
<path d="M3653 3015 c-3 -9 -3 -19 1 -22 3 -4 -6 -15 -21 -25 -16 -10 -23 -18
-18 -18 21 1 49 31 50 55 1 29 -3 32 -12 10z"/>
<path d="M3804 3019 c-3 -6 -2 -15 4 -21 6 -6 12 -6 17 3 6 8 4 10 -5 4 -10
-6 -12 -4 -7 8 7 19 2 23 -9 6z"/>
<path d="M3960 3015 c-7 -9 -11 -17 -9 -20 3 -2 10 5 17 15 14 24 10 26 -8 5z"/>
<path d="M4026 3022 c-2 -4 4 -8 14 -8 10 0 16 4 14 8 -3 4 -9 8 -14 8 -5 0
-11 -4 -14 -8z"/>
<path d="M3477 3009 c7 -7 15 -10 18 -7 3 3 -2 9 -12 12 -14 6 -15 5 -6 -5z"/>
<path d="M3676 3011 c-3 -5 1 -11 9 -14 9 -4 12 -1 8 9 -6 16 -10 17 -17 5z"/>
<path d="M3710 3009 c0 -5 5 -7 10 -4 6 3 10 8 10 11 0 2 -4 4 -10 4 -5 0 -10
-5 -10 -11z"/>
<path d="M3747 3007 c-3 -8 3 -13 17 -14 11 0 15 1 8 4 -6 3 -10 9 -6 14 3 5
1 9 -4 9 -6 0 -12 -6 -15 -13z"/>
<path d="M1955 3001 c-3 -5 -2 -12 3 -15 5 -3 9 1 9 9 0 17 -3 19 -12 6z"/>
<path d="M2170 3006 c0 -2 7 -7 16 -10 8 -3 12 -2 9 4 -6 10 -25 14 -25 6z"/>
<path d="M3570 3000 c0 -5 5 -10 10 -10 6 0 10 5 10 10 0 6 -4 10 -10 10 -5 0
-10 -4 -10 -10z"/>
<path d="M4387 2999 c7 -7 15 -10 18 -7 3 3 -2 9 -12 12 -14 6 -15 5 -6 -5z"/>
<path d="M3839 2998 c-8 -27 -5 -36 9 -30 10 4 12 7 4 10 -7 2 -10 8 -6 13 3
5 3 9 0 9 -3 0 -6 -1 -7 -2z"/>
<path d="M4029 2983 c-13 -16 -12 -17 4 -4 9 7 17 15 17 17 0 8 -8 3 -21 -13z"/>
<path d="M2216 2978 c3 -5 10 -6 15 -3 13 9 11 12 -6 12 -8 0 -12 -4 -9 -9z"/>
<path d="M2522 2978 c-15 -15 -15 -28 0 -28 6 0 8 3 5 7 -4 3 -2 12 4 20 14
16 7 17 -9 1z"/>
<path d="M3470 2981 c8 -5 18 -7 22 -5 4 3 8 -3 8 -13 0 -11 -8 -19 -19 -20
-14 -1 -18 3 -14 15 4 14 3 14 -5 2 -14 -19 -6 -30 21 -26 33 5 30 48 -3 53
-18 2 -21 1 -10 -6z"/>
<path d="M3710 2980 c0 -5 5 -10 10 -10 6 0 10 5 10 10 0 6 -4 10 -10 10 -5 0
-10 -4 -10 -10z"/>
<path d="M4255 2980 c-3 -5 -1 -10 4 -10 6 0 11 5 11 10 0 6 -2 10 -4 10 -3 0
-8 -4 -11 -10z"/>
<path d="M3435 2970 c3 -5 8 -10 11 -10 2 0 4 5 4 10 0 6 -5 10 -11 10 -5 0
-7 -4 -4 -10z"/>
<path d="M3590 2970 c0 -5 7 -7 15 -4 8 4 15 8 15 10 0 2 -7 4 -15 4 -8 0 -15
-4 -15 -10z"/>
<path d="M2410 2961 c0 -6 4 -13 10 -16 6 -3 7 1 4 9 -7 18 -14 21 -14 7z"/>
<path d="M2453 2955 c0 -8 4 -12 9 -9 5 3 6 10 3 15 -9 13 -12 11 -12 -6z"/>
<path d="M3658 2957 c-9 -6 -8 -7 5 -3 20 6 21 2 7 -25 -6 -10 -8 -19 -6 -19
3 0 12 13 20 28 13 24 13 29 1 29 -8 0 -20 -5 -27 -10z"/>
<path d="M3740 2959 c0 -6 -7 -9 -15 -5 -8 3 -14 2 -12 -2 2 -8 -15 -30 -53
-67 -24 -24 -47 -34 -35 -16 9 15 -13 23 -32 11 -15 -9 -14 -10 6 -4 15 4 21
2 17 -4 -3 -6 -2 -13 4 -17 12 -7 4 -25 -11 -25 -6 0 -7 5 -3 12 4 7 3 8 -5 4
-6 -4 -9 -11 -6 -16 3 -5 -1 -12 -8 -17 -8 -4 -22 -20 -32 -35 -9 -16 -21 -28
-26 -28 -10 0 -48 -36 -51 -47 -5 -20 -49 -44 -70 -38 -23 6 -23 6 -2 -7 19
-12 19 -14 3 -29 -9 -10 -21 -13 -26 -8 -4 4 -15 4 -23 -2 -12 -9 -12 -10 3
-5 15 5 17 2 11 -17 -4 -12 -14 -28 -23 -35 -13 -11 -12 -11 8 -1 21 10 27 9
43 -11 10 -12 15 -27 11 -33 -3 -6 -1 -7 6 -3 7 5 24 -5 43 -24 23 -25 27 -34
17 -41 -8 -5 -16 -3 -21 4 -4 7 -6 3 -6 -10 2 -19 4 -20 24 -6 21 13 25 12 56
-17 18 -18 33 -39 33 -48 0 -8 7 -17 15 -19 13 -4 13 -3 0 6 -8 6 -10 11 -5
11 14 -1 105 -95 105 -109 0 -7 4 -10 8 -7 10 6 58 -45 54 -57 -1 -4 1 -6 5
-5 12 4 53 -35 53 -49 0 -7 4 -12 8 -10 12 3 182 -168 182 -184 0 -7 3 -10 6
-7 8 9 120 -102 116 -116 -2 -6 -1 -8 3 -4 4 4 40 -25 81 -65 61 -59 71 -74
61 -87 -10 -13 -10 -13 4 -3 13 10 22 5 57 -30 24 -24 39 -47 35 -52 -5 -4 -3
-6 2 -2 6 3 64 -48 129 -114 66 -65 121 -117 123 -115 3 2 5 175 5 384 l1 379
-99 98 c-54 53 -98 101 -96 107 1 5 -1 7 -6 4 -5 -3 -32 19 -60 49 -28 30 -56
55 -63 55 -7 0 -10 2 -7 5 3 3 -17 27 -44 53 -72 68 -103 103 -101 113 2 4 -4
6 -12 3 -10 -4 -15 0 -15 11 0 9 -4 13 -10 10 -5 -3 -10 1 -10 10 0 9 -4 13
-10 10 -5 -3 -10 1 -10 9 0 9 -5 16 -10 16 -16 0 -81 71 -75 81 4 5 -2 6 -11
2 -13 -5 -16 -3 -11 10 4 12 2 14 -10 10 -11 -4 -14 -2 -9 5 4 7 2 12 -4 12
-6 0 -22 12 -35 26 -21 22 -23 30 -13 43 12 14 11 14 -5 2 -15 -12 -23 -7 -77
48 -63 63 -70 69 -70 50z"/>
<path d="M3880 2960 c-12 -7 -10 -9 8 -7 12 0 22 5 22 9 0 11 -12 10 -30 -2z"/>
<path d="M4045 2960 c-3 -6 1 -7 9 -4 18 7 21 14 7 14 -6 0 -13 -4 -16 -10z"/>
<path d="M4085 2959 c-3 -4 2 -6 10 -5 21 3 28 13 10 13 -9 0 -18 -4 -20 -8z"/>
<path d="M3949 2943 c-13 -16 -12 -17 4 -4 9 7 17 15 17 17 0 8 -8 3 -21 -13z"/>
<path d="M4255 2951 c-3 -5 -2 -12 3 -15 5 -3 9 1 9 9 0 17 -3 19 -12 6z"/>
<path d="M2116 2933 c-6 -14 -5 -15 5 -6 7 7 10 15 7 18 -3 3 -9 -2 -12 -12z"/>
<path d="M3417 2943 c-6 -14 -2 -38 7 -40 5 -1 13 -7 18 -15 8 -10 9 -10 5 2
-2 8 -10 14 -16 12 -14 -3 -11 30 4 40 6 5 6 8 -2 8 -6 0 -14 -3 -16 -7z"/>
<path d="M3533 2933 c-7 -18 5 -45 16 -39 5 4 12 0 14 -6 4 -10 6 -10 6 0 1 7
6 10 13 6 6 -4 8 -3 4 4 -3 6 -15 9 -26 7 -14 -3 -20 2 -20 15 0 13 5 17 19
13 10 -3 21 -1 24 4 3 4 -6 8 -20 8 -14 0 -28 -6 -30 -12z"/>
<path d="M3844 2939 c-3 -6 0 -17 8 -25 13 -13 15 -13 15 0 0 8 -5 12 -10 9
-6 -4 -8 0 -4 10 7 19 2 23 -9 6z"/>
<path d="M4210 2940 c0 -5 5 -10 11 -10 5 0 7 5 4 10 -3 6 -8 10 -11 10 -2 0
-4 -4 -4 -10z"/>
<path d="M3597 2933 c-4 -3 -7 -11 -7 -17 0 -6 5 -5 12 2 6 6 9 14 7 17 -3 3
-9 2 -12 -2z"/>
<path d="M3634 2915 c0 -14 3 -25 7 -25 3 0 7 11 7 25 0 14 -4 25 -7 25 -4 0
-7 -11 -7 -25z"/>
<path d="M3964 2918 c-12 -14 -13 -18 -3 -10 9 6 18 10 21 7 2 -3 5 2 5 10 0
19 0 19 -23 -7z"/>
<path d="M4013 2927 c0 -7 9 -14 20 -14 11 -1 18 -1 16 0 -2 2 -11 8 -20 15
-12 9 -16 9 -16 -1z"/>
<path d="M1866 2918 c3 -5 10 -6 15 -3 13 9 11 12 -6 12 -8 0 -12 -4 -9 -9z"/>
<path d="M2400 2920 c-12 -7 -10 -9 7 -7 12 0 19 5 17 9 -6 10 -6 10 -24 -2z"/>
<path d="M3447 2919 c7 -7 15 -10 18 -7 3 3 -2 9 -12 12 -14 6 -15 5 -6 -5z"/>
<path d="M3500 2910 c-6 -11 -8 -20 -6 -20 3 0 10 9 16 20 6 11 8 20 6 20 -3
0 -10 -9 -16 -20z"/>
<path d="M3810 2920 c0 -5 5 -10 10 -10 6 0 10 5 10 10 0 6 -4 10 -10 10 -5 0
-10 -4 -10 -10z"/>
<path d="M4086 2918 c3 -5 10 -6 15 -3 13 9 11 12 -6 12 -8 0 -12 -4 -9 -9z"/>
<path d="M2190 2899 c0 -5 5 -7 10 -4 6 3 10 8 10 11 0 2 -4 4 -10 4 -5 0 -10
-5 -10 -11z"/>
<path d="M3394 2897 c5 -15 2 -17 -17 -12 -20 5 -20 5 -4 -6 23 -14 40 0 26
21 -9 12 -10 12 -5 -3z"/>
<path d="M3915 2884 c0 -25 10 -23 17 4 3 10 0 19 -6 19 -6 0 -11 -10 -11 -23z"/>
<path d="M4215 2900 c3 -5 8 -10 11 -10 2 0 4 5 4 10 0 6 -5 10 -11 10 -5 0
-7 -4 -4 -10z"/>
<path d="M4255 2900 c-3 -5 -1 -10 4 -10 6 0 11 5 11 10 0 6 -2 10 -4 10 -3 0
-8 -4 -11 -10z"/>
<path d="M3470 2885 c0 -8 4 -15 10 -15 5 0 7 7 4 15 -4 8 -8 15 -10 15 -2 0
-4 -7 -4 -15z"/>
<path d="M1906 2882 c-3 -5 1 -9 9 -9 8 0 12 4 9 9 -3 4 -7 8 -9 8 -2 0 -6 -4
-9 -8z"/>
<path d="M3515 2880 c3 -5 11 -10 16 -10 6 0 7 5 4 10 -3 6 -11 10 -16 10 -6
0 -7 -4 -4 -10z"/>
<path d="M4050 2879 c0 -5 5 -7 10 -4 6 3 10 8 10 11 0 2 -4 4 -10 4 -5 0 -10
-5 -10 -11z"/>
<path d="M4340 2880 c-9 -6 -10 -10 -3 -10 6 0 15 5 18 10 8 12 4 12 -15 0z"/>
<path d="M3415 2870 c-8 -13 20 -24 36 -14 9 5 10 2 6 -9 -3 -10 -2 -17 4 -17
6 0 9 8 7 18 -2 11 -11 16 -27 14 -15 -2 -21 0 -17 7 4 6 5 11 2 11 -3 0 -8
-5 -11 -10z"/>
<path d="M2250 2860 c0 -5 5 -10 11 -10 5 0 7 5 4 10 -3 6 -8 10 -11 10 -2 0
-4 -4 -4 -10z"/>
<path d="M3359 2863 c0 -5 -3 -19 -5 -32 -2 -14 -2 -22 1 -19 8 8 17 58 10 58
-3 0 -5 -3 -6 -7z"/>
<path d="M3493 2855 c-3 -9 -3 -19 1 -22 3 -3 -2 -12 -12 -20 -15 -13 -15 -13
5 -4 15 8 20 17 16 32 -5 17 -3 20 7 14 9 -5 11 -4 6 3 -10 16 -15 15 -23 -3z"/>
<path d="M3933 2845 c0 -8 3 -13 5 -10 3 3 12 -1 21 -7 10 -8 9 -4 -3 10 -23
26 -23 26 -23 7z"/>
<path d="M4053 2845 c0 -8 4 -15 9 -15 4 0 8 4 8 9 0 6 -4 12 -8 15 -5 3 -9
-1 -9 -9z"/>
<path d="M3380 2846 c0 -2 7 -6 15 -10 8 -3 15 -1 15 4 0 6 -7 10 -15 10 -8 0
-15 -2 -15 -4z"/>
<path d="M3556 2835 c4 -8 8 -15 10 -15 2 0 4 7 4 15 0 8 -4 15 -10 15 -5 0
-7 -7 -4 -15z"/>
<path d="M4253 2831 c0 -11 5 -18 9 -15 4 3 5 11 1 19 -7 21 -12 19 -10 -4z"/>
<path d="M2176 2822 c-3 -4 4 -9 15 -9 23 -2 25 3 4 10 -8 4 -16 3 -19 -1z"/>
<path d="M3374 2815 c-3 -8 -4 -20 -1 -27 3 -7 6 -3 6 10 1 15 5 21 13 16 7
-4 8 -3 4 4 -10 16 -15 15 -22 -3z"/>
<path d="M3419 2828 c-6 -22 -5 -38 3 -38 6 0 7 7 4 16 -5 12 -1 14 17 9 17
-5 19 -4 7 4 -14 10 -29 14 -31 9z"/>
<path d="M3987 2819 c7 -7 15 -10 18 -7 3 3 -2 9 -12 12 -14 6 -15 5 -6 -5z"/>
<path d="M2349 2803 c-13 -16 -12 -17 4 -4 9 7 17 15 17 17 0 8 -8 3 -21 -13z"/>
<path d="M3311 2804 c0 -11 3 -14 6 -6 3 7 2 16 -1 19 -3 4 -6 -2 -5 -13z"/>
<path d="M3530 2800 c0 -5 5 -10 10 -10 6 0 10 5 10 10 0 6 -4 10 -10 10 -5 0
-10 -4 -10 -10z"/>
<path d="M4335 2800 c3 -5 8 -10 11 -10 2 0 4 5 4 10 0 6 -5 10 -11 10 -5 0
-7 -4 -4 -10z"/>
<path d="M4395 2800 c3 -5 8 -10 11 -10 2 0 4 5 4 10 0 6 -5 10 -11 10 -5 0
-7 -4 -4 -10z"/>
<path d="M2150 2781 c0 -6 4 -13 10 -16 6 -3 7 1 4 9 -7 18 -14 21 -14 7z"/>
<path d="M2255 2780 c3 -5 8 -10 11 -10 2 0 4 5 4 10 0 6 -5 10 -11 10 -5 0
-7 -4 -4 -10z"/>
<path d="M3297 2777 c3 -5 13 -7 23 -4 11 3 21 -2 24 -10 3 -8 10 -12 15 -9 5
4 12 1 14 -4 4 -7 5 -6 4 0 -2 7 -6 11 -11 10 -5 -1 -12 4 -17 11 -4 7 -19 13
-32 13 -14 1 -23 -2 -20 -7z"/>
<path d="M3390 2780 c0 -6 7 -10 15 -10 8 0 15 2 15 4 0 2 -7 6 -15 10 -8 3
-15 1 -15 -4z"/>
<path d="M3468 2783 c7 -3 16 -2 19 1 4 3 -2 6 -13 5 -11 0 -14 -3 -6 -6z"/>
<path d="M3512 2776 c7 -8 15 -12 17 -11 5 6 -10 25 -20 25 -5 0 -4 -6 3 -14z"/>
<path d="M3985 2779 c-3 -4 2 -6 10 -5 21 3 28 13 10 13 -9 0 -18 -4 -20 -8z"/>
<path d="M1909 2763 c-13 -16 -12 -17 4 -4 16 13 21 21 13 21 -2 0 -10 -8 -17
-17z"/>
<path d="M2196 2767 c3 -10 9 -15 12 -12 3 3 0 11 -7 18 -10 9 -11 8 -5 -6z"/>
<path d="M4110 2776 c0 -2 8 -10 18 -17 15 -13 16 -12 3 4 -13 16 -21 21 -21
13z"/>
<path d="M3250 2755 c0 -8 2 -15 4 -15 2 0 6 7 10 15 3 8 1 15 -4 15 -6 0 -10
-7 -10 -15z"/>
<path d="M3455 2760 c3 -5 8 -10 11 -10 2 0 4 5 4 10 0 6 -5 10 -11 10 -5 0
-7 -4 -4 -10z"/>
<path d="M3490 2759 c0 -5 5 -7 10 -4 6 3 10 8 10 11 0 2 -4 4 -10 4 -5 0 -10
-5 -10 -11z"/>
<path d="M4039 2768 c-8 -20 -3 -55 7 -55 9 0 10 5 5 11 -5 6 -7 19 -6 29 3
14 -2 25 -6 15z"/>
<path d="M4335 2760 c-3 -5 -1 -10 4 -10 6 0 11 5 11 10 0 6 -2 10 -4 10 -3 0
-8 -4 -11 -10z"/>
<path d="M3316 2747 c3 -10 9 -15 12 -12 3 3 0 11 -7 18 -10 9 -11 8 -5 -6z"/>
<path d="M3436 2747 c3 -10 9 -15 12 -12 3 3 0 11 -7 18 -10 9 -11 8 -5 -6z"/>
<path d="M3190 2740 c0 -5 5 -10 10 -10 6 0 10 5 10 10 0 6 -4 10 -10 10 -5 0
-10 -4 -10 -10z"/>
<path d="M3270 2740 c0 -5 7 -7 15 -4 8 4 15 8 15 10 0 2 -7 4 -15 4 -8 0 -15
-4 -15 -10z"/>
<path d="M3390 2740 c0 -5 7 -7 15 -4 8 4 15 8 15 10 0 2 -7 4 -15 4 -8 0 -15
-4 -15 -10z"/>
<path d="M4235 2739 c-3 -4 2 -6 10 -5 21 3 28 13 10 13 -9 0 -18 -4 -20 -8z"/>
<path d="M4296 2738 c3 -5 10 -6 15 -3 13 9 11 12 -6 12 -8 0 -12 -4 -9 -9z"/>
<path d="M3216 2725 c-3 -8 -1 -15 4 -15 6 0 10 7 10 15 0 8 -2 15 -4 15 -2 0
-6 -7 -10 -15z"/>
<path d="M3461 2724 c0 -11 3 -14 6 -6 3 7 2 16 -1 19 -3 4 -6 -2 -5 -13z"/>
<path d="M2185 2720 c-3 -6 1 -7 9 -4 18 7 21 14 7 14 -6 0 -13 -4 -16 -10z"/>
<path d="M3280 2720 c-8 -5 -10 -10 -5 -10 6 0 17 5 25 10 8 5 11 10 5 10 -5
0 -17 -5 -25 -10z"/>
<path d="M3416 2715 c4 -8 8 -15 10 -15 2 0 4 7 4 15 0 8 -4 15 -10 15 -5 0
-7 -7 -4 -15z"/>
<path d="M3321 2713 c-1 -17 16 -25 25 -12 4 7 3 9 -4 5 -5 -3 -13 0 -15 6 -4
9 -6 10 -6 1z"/>
<path d="M3170 2700 c-9 -6 -10 -10 -3 -10 6 0 15 5 18 10 8 12 4 12 -15 0z"/>
<path d="M3230 2700 c-13 -8 -12 -10 3 -10 9 0 17 5 17 10 0 12 -1 12 -20 0z"/>
<path d="M3365 2697 c-18 -14 -14 -37 8 -37 7 0 6 4 -3 10 -13 8 -12 11 5 24
11 9 17 16 14 16 -3 0 -13 -6 -24 -13z"/>
<path d="M3396 2693 c-6 -14 -5 -15 5 -6 7 7 10 15 7 18 -3 3 -9 -2 -12 -12z"/>
<path d="M4230 2705 c0 -7 30 -13 34 -7 3 4 -4 9 -15 9 -10 1 -19 0 -19 -2z"/>
<path d="M1836 2687 c3 -10 9 -15 12 -12 3 3 0 11 -7 18 -10 9 -11 8 -5 -6z"/>
<path d="M3195 2689 c-4 -6 -5 -12 -2 -15 2 -3 7 2 10 11 7 17 1 20 -8 4z"/>
<path d="M3260 2694 c0 -5 7 -18 15 -28 8 -11 15 -16 15 -10 0 5 -7 18 -15 28
-8 11 -15 16 -15 10z"/>
<path d="M2020 2680 c-9 -6 -10 -10 -3 -10 6 0 15 5 18 10 8 12 4 12 -15 0z"/>
<path d="M3150 2670 c8 -5 20 -10 25 -10 6 0 3 5 -5 10 -8 5 -19 10 -25 10 -5
0 -3 -5 5 -10z"/>
<path d="M2075 2659 c-3 -4 2 -6 10 -5 21 3 28 13 10 13 -9 0 -18 -4 -20 -8z"/>
<path d="M2135 2659 c-3 -4 2 -6 10 -5 21 3 28 13 10 13 -9 0 -18 -4 -20 -8z"/>
<path d="M3110 2663 c0 -5 5 -15 10 -23 7 -12 9 -10 7 8 -1 19 -17 33 -17 15z"/>
<path d="M3255 2660 c3 -5 2 -10 -3 -10 -6 0 -13 -8 -16 -17 -6 -15 -5 -15 13
1 18 16 20 36 5 36 -3 0 -2 -4 1 -10z"/>
<path d="M4215 2660 c-3 -5 -1 -10 4 -10 6 0 11 5 11 10 0 6 -2 10 -4 10 -3 0
-8 -4 -11 -10z"/>
<path d="M3320 2655 c0 -5 5 -17 10 -25 5 -8 10 -10 10 -5 0 6 -5 17 -10 25
-5 8 -10 11 -10 5z"/>
<path d="M2160 2640 c-9 -6 -10 -10 -3 -10 6 0 15 5 18 10 8 12 4 12 -15 0z"/>
<path d="M3166 2638 c3 -5 10 -6 15 -3 13 9 11 12 -6 12 -8 0 -12 -4 -9 -9z"/>
<path d="M3301 2634 c0 -11 3 -14 6 -6 3 7 2 16 -1 19 -3 4 -6 -2 -5 -13z"/>
<path d="M3370 2646 c0 -2 7 -7 16 -10 8 -3 12 -2 9 4 -6 10 -25 14 -25 6z"/>
<path d="M3195 2630 c-3 -6 1 -7 9 -4 18 7 21 14 7 14 -6 0 -13 -4 -16 -10z"/>
<path d="M3255 2621 c-7 -12 12 -24 25 -16 6 3 10 12 9 18 0 9 -2 9 -6 0 -2
-7 -9 -13 -14 -13 -6 0 -7 5 -4 10 3 6 4 10 1 10 -3 0 -7 -4 -11 -9z"/>
<path d="M3069 2603 c-13 -16 -12 -17 4 -4 9 7 17 15 17 17 0 8 -8 3 -21 -13z"/>
<path d="M3095 2599 c-6 -8 -4 -10 5 -4 10 6 12 4 6 -11 -6 -15 -5 -17 5 -6 9
9 10 15 2 23 -8 8 -13 7 -18 -2z"/>
<path d="M3147 2591 c-3 -13 -1 -18 9 -14 7 2 10 11 7 19 -7 19 -10 18 -16 -5z"/>
<path d="M3321 2596 c-9 -10 -8 -15 3 -19 11 -4 13 -1 9 10 -5 12 -3 14 7 8 9
-5 11 -4 6 3 -9 15 -11 15 -25 -2z"/>
<path d="M4590 2600 c0 -5 5 -10 11 -10 5 0 7 5 4 10 -3 6 -8 10 -11 10 -2 0
-4 -4 -4 -10z"/>
<path d="M4355 2591 c-3 -5 -2 -12 3 -15 5 -3 9 1 9 9 0 17 -3 19 -12 6z"/>
<path d="M4215 2580 c-3 -5 -1 -10 4 -10 6 0 11 5 11 10 0 6 -2 10 -4 10 -3 0
-8 -4 -11 -10z"/>
<path d="M4295 2579 c-3 -4 2 -6 10 -5 21 3 28 13 10 13 -9 0 -18 -4 -20 -8z"/>
<path d="M3073 2565 c0 -8 4 -15 9 -15 4 0 8 4 8 9 0 6 -4 12 -8 15 -5 3 -9
-1 -9 -9z"/>
<path d="M3195 2570 c-4 -6 -10 -8 -15 -5 -4 3 -14 -3 -21 -13 -12 -15 -12
-15 1 -5 8 6 20 12 25 13 18 3 41 19 28 20 -6 0 -15 -5 -18 -10z"/>
<path d="M3234 2566 c1 -8 5 -18 8 -22 4 -3 5 1 4 10 -1 8 -5 18 -8 22 -4 3
-5 -1 -4 -10z"/>
<path d="M2057 2555 c-4 -8 -3 -16 1 -19 4 -3 9 4 9 15 2 23 -3 25 -10 4z"/>
<path d="M3108 2531 c4 -10 1 -12 -8 -6 -8 5 -11 4 -7 -2 7 -11 43 -11 54 1 5
4 4 7 -2 6 -21 -5 -29 1 -15 10 12 7 10 9 -7 8 -14 -2 -19 -7 -15 -17z"/>
<path d="M3268 2543 c6 -2 18 -2 25 0 6 3 1 5 -13 5 -14 0 -19 -2 -12 -5z"/>
<path d="M3255 2520 c5 -8 42 -6 50 1 2 3 -8 5 -25 5 -16 0 -27 -3 -25 -6z"/>
<path d="M4253 2511 c0 -11 5 -18 9 -15 4 3 5 11 1 19 -7 21 -12 19 -10 -4z"/>
<path d="M3030 2516 c0 -2 9 -6 20 -9 11 -3 18 -1 14 4 -5 9 -34 13 -34 5z"/>
<path d="M2950 2500 c0 -5 5 -10 11 -10 5 0 7 5 4 10 -3 6 -8 10 -11 10 -2 0
-4 -4 -4 -10z"/>
<path d="M3417 2485 c3 -8 9 -12 14 -9 12 7 11 11 -5 17 -10 4 -13 1 -9 -8z"/>
<path d="M3170 2481 c0 -6 4 -13 10 -16 6 -3 7 1 4 9 -7 18 -14 21 -14 7z"/>
<path d="M3216 2473 c-6 -14 -5 -15 5 -6 7 7 10 15 7 18 -3 3 -9 -2 -12 -12z"/>
<path d="M4430 2481 c0 -6 4 -13 10 -16 6 -3 7 1 4 9 -7 18 -14 21 -14 7z"/>
<path d="M3389 2463 c-13 -16 -12 -17 4 -4 9 7 17 15 17 17 0 8 -8 3 -21 -13z"/>
<path d="M2006 2458 c3 -5 10 -6 15 -3 13 9 11 12 -6 12 -8 0 -12 -4 -9 -9z"/>
<path d="M2935 2450 c-4 -6 -12 -7 -18 -4 -7 4 -8 3 -4 -1 13 -15 34 -14 34 1
0 17 -4 18 -12 4z"/>
<path d="M3412 2451 c-11 -6 -10 -10 0 -19 11 -8 14 -7 14 9 0 10 0 19 -1 19
0 0 -6 -4 -13 -9z"/>
<path d="M3073 2434 c0 -9 4 -11 12 -4 7 5 14 9 16 7 2 -1 3 0 1 2 -7 11 -29
7 -29 -5z"/>
<path d="M3155 2441 c-3 -5 -2 -12 3 -15 5 -3 9 1 9 9 0 17 -3 19 -12 6z"/>
<path d="M2906 2417 c3 -10 9 -15 12 -12 3 3 0 11 -7 18 -10 9 -11 8 -5 -6z"/>
<path d="M3033 2410 c19 -25 20 -26 14 -8 -3 9 -1 19 6 21 7 3 2 4 -10 4 -18
-1 -20 -4 -10 -17z"/>
<path d="M3188 2423 c10 -4 9 -10 -5 -26 -12 -15 -13 -18 -2 -9 9 6 19 10 22
7 4 -3 5 -2 2 2 -3 3 -1 11 5 17 6 8 2 12 -13 13 -12 0 -16 -1 -9 -4z"/>
<path d="M3305 2420 c-3 -6 1 -7 9 -4 18 7 21 14 7 14 -6 0 -13 -4 -16 -10z"/>
<path d="M3350 2415 c5 -7 7 -15 3 -18 -3 -4 -1 -7 5 -7 6 0 10 8 9 18 0 10
-7 19 -14 19 -9 0 -10 -4 -3 -12z"/>
<path d="M3380 2426 c0 -2 8 -10 18 -17 15 -13 16 -12 3 4 -13 16 -21 21 -21
13z"/>
<path d="M3479 2413 c-13 -16 -12 -17 4 -4 16 13 21 21 13 21 -2 0 -10 -8 -17
-17z"/>
<path d="M2939 2418 c-5 -18 -6 -38 -1 -34 7 8 12 36 6 36 -2 0 -4 -1 -5 -2z"/>
<path d="M3099 2418 c-5 -18 -6 -38 -1 -34 7 8 12 36 6 36 -2 0 -4 -1 -5 -2z"/>
<path d="M2991 2387 c-13 -21 -12 -21 5 -5 10 10 16 20 13 22 -3 3 -11 -5 -18
-17z"/>
<path d="M3416 2393 c-6 -14 -5 -15 5 -6 7 7 10 15 7 18 -3 3 -9 -2 -12 -12z"/>
<path d="M3120 2374 c-11 -12 -10 -18 5 -32 18 -16 18 -16 6 1 -11 14 -11 20
-1 32 7 8 10 15 7 15 -2 0 -10 -7 -17 -16z"/>
<path d="M3260 2386 c0 -2 8 -10 18 -17 15 -13 16 -12 3 4 -13 16 -21 21 -21
13z"/>
<path d="M2863 2364 c9 -11 15 -24 12 -27 -3 -4 -2 -5 2 -2 4 3 8 13 9 21 1 9
0 13 -3 10 -4 -3 -13 0 -22 6 -12 10 -12 7 2 -8z"/>
<path d="M3006 2365 c-11 -8 -15 -15 -9 -15 6 0 16 7 23 15 16 19 11 19 -14 0z"/>
<path d="M3215 2370 c-4 -6 -10 -8 -15 -5 -4 3 -7 -2 -6 -10 1 -8 4 -16 7 -17
2 -2 3 -1 1 1 -1 2 5 13 15 23 9 10 13 18 10 18 -3 0 -9 -5 -12 -10z"/>
<path d="M1715 2360 c-3 -5 -1 -10 4 -10 6 0 11 5 11 10 0 6 -2 10 -4 10 -3 0
-8 -4 -11 -10z"/>
<path d="M2819 2353 c-13 -16 -12 -17 4 -4 16 13 21 21 13 21 -2 0 -10 -8 -17
-17z"/>
<path d="M2917 2352 c-15 -16 -15 -19 -2 -19 8 0 13 3 10 5 -3 3 0 11 6 19 17
20 5 16 -14 -5z"/>
<path d="M3074 2348 l-19 -23 23 19 c12 11 22 21 22 23 0 8 -8 2 -26 -19z"/>
<path d="M3153 2353 c0 -11 7 -20 14 -20 10 0 10 4 1 16 -7 9 -13 18 -15 20
-1 2 -1 -5 0 -16z"/>
<path d="M3240 2366 c0 -2 8 -10 18 -17 15 -13 16 -12 3 4 -13 16 -21 21 -21
13z"/>
<path d="M3470 2359 c0 -5 5 -7 10 -4 6 3 10 8 10 11 0 2 -4 4 -10 4 -5 0 -10
-5 -10 -11z"/>
<path d="M3517 2352 c-15 -16 -15 -19 -2 -19 8 0 13 3 10 5 -3 3 0 11 6 19 17
20 5 16 -14 -5z"/>
<path d="M4480 2360 c-9 -6 -10 -10 -3 -10 6 0 15 5 18 10 8 12 4 12 -15 0z"/>
<path d="M3310 2336 c7 -7 13 -7 20 0 6 6 3 10 -10 10 -13 0 -16 -4 -10 -10z"/>
<path d="M3430 2346 c0 -2 7 -7 16 -10 8 -3 12 -2 9 4 -6 10 -25 14 -25 6z"/>
<path d="M2970 2336 c0 -2 8 -10 18 -17 15 -13 16 -12 3 4 -13 16 -21 21 -21
13z"/>
<path d="M3085 2320 c-3 -6 1 -7 9 -4 18 7 21 14 7 14 -6 0 -13 -4 -16 -10z"/>
<path d="M3350 2320 c0 -5 5 -10 10 -10 6 0 10 5 10 10 0 6 -4 10 -10 10 -5 0
-10 -4 -10 -10z"/>
<path d="M2800 2300 c-9 -6 -10 -10 -3 -10 6 0 15 5 18 10 8 12 4 12 -15 0z"/>
<path d="M3306 2302 c-3 -5 1 -9 9 -9 8 0 15 4 15 9 0 4 -4 8 -9 8 -6 0 -12
-4 -15 -8z"/>
<path d="M3390 2302 c0 -5 7 -9 15 -9 8 0 12 4 9 9 -3 4 -9 8 -15 8 -5 0 -9
-4 -9 -8z"/>
<path d="M2835 2280 c-3 -5 -1 -10 4 -10 6 0 11 5 11 10 0 6 -2 10 -4 10 -3 0
-8 -4 -11 -10z"/>
<path d="M2933 2275 c0 -8 4 -12 9 -9 4 3 8 9 8 15 0 5 -4 9 -8 9 -5 0 -9 -7
-9 -15z"/>
<path d="M2975 2281 c3 -3 17 -6 31 -7 13 0 22 2 19 5 -3 3 -17 6 -31 7 -13 0
-22 -2 -19 -5z"/>
<path d="M3506 2282 c-3 -5 1 -9 9 -9 8 0 12 4 9 9 -3 4 -7 8 -9 8 -2 0 -6 -4
-9 -8z"/>
<path d="M3573 2275 c0 -8 4 -12 9 -9 4 3 8 9 8 15 0 5 -4 9 -8 9 -5 0 -9 -7
-9 -15z"/>
<path d="M3630 2278 c0 -6 3 -8 7 -5 3 4 13 1 22 -6 14 -11 14 -10 2 6 -15 20
-31 22 -31 5z"/>
<path d="M2845 2240 c10 -11 20 -20 23 -20 3 0 -3 9 -13 20 -10 11 -20 20 -23
20 -3 0 3 -9 13 -20z"/>
<path d="M2895 2251 c-3 -5 -2 -12 3 -15 5 -3 9 1 9 9 0 17 -3 19 -12 6z"/>
<path d="M1700 2246 c0 -2 8 -10 18 -17 15 -13 16 -12 3 4 -13 16 -21 21 -21
13z"/>
<path d="M2730 2241 c0 -6 4 -13 10 -16 6 -3 7 1 4 9 -7 18 -14 21 -14 7z"/>
<path d="M2926 2242 c-3 -5 1 -9 9 -9 8 0 12 4 9 9 -3 4 -7 8 -9 8 -2 0 -6 -4
-9 -8z"/>
<path d="M2960 2246 c0 -2 8 -10 18 -17 15 -13 16 -12 3 4 -13 16 -21 21 -21
13z"/>
<path d="M3136 2242 c-3 -5 1 -9 9 -9 8 0 12 4 9 9 -3 4 -7 8 -9 8 -2 0 -6 -4
-9 -8z"/>
<path d="M3299 2233 c-13 -16 -12 -17 4 -4 16 13 21 21 13 21 -2 0 -10 -8 -17
-17z"/>
<path d="M3336 2242 c-3 -5 1 -9 9 -9 8 0 12 4 9 9 -3 4 -7 8 -9 8 -2 0 -6 -4
-9 -8z"/>
<path d="M3636 2238 c3 -5 10 -6 15 -3 13 9 11 12 -6 12 -8 0 -12 -4 -9 -9z"/>
<path d="M3016 2207 c3 -10 9 -15 12 -12 3 3 0 11 -7 18 -10 9 -11 8 -5 -6z"/>
<path d="M2806 2198 c3 -5 10 -6 15 -3 13 9 11 12 -6 12 -8 0 -12 -4 -9 -9z"/>
<path d="M2916 2193 c-6 -14 -5 -15 5 -6 7 7 10 15 7 18 -3 3 -9 -2 -12 -12z"/>
<path d="M3196 2193 c-6 -14 -5 -15 5 -6 7 7 10 15 7 18 -3 3 -9 -2 -12 -12z"/>
<path d="M3230 2201 c0 -6 4 -13 10 -16 6 -3 7 1 4 9 -7 18 -14 21 -14 7z"/>
<path d="M3319 2193 c-13 -16 -12 -17 4 -4 16 13 21 21 13 21 -2 0 -10 -8 -17
-17z"/>
<path d="M2759 2178 c-5 -18 -6 -38 -1 -34 7 8 12 36 6 36 -2 0 -4 -1 -5 -2z"/>
<path d="M2926 2158 c3 -5 10 -6 15 -3 13 9 11 12 -6 12 -8 0 -12 -4 -9 -9z"/>
<path d="M3066 2162 c-3 -5 1 -9 9 -9 8 0 12 4 9 9 -3 4 -7 8 -9 8 -2 0 -6 -4
-9 -8z"/>
<path d="M3226 2162 c-3 -5 1 -9 9 -9 8 0 12 4 9 9 -3 4 -7 8 -9 8 -2 0 -6 -4
-9 -8z"/>
<path d="M3316 2162 c-3 -5 1 -9 9 -9 8 0 12 4 9 9 -3 4 -7 8 -9 8 -2 0 -6 -4
-9 -8z"/>
<path d="M2815 2140 c3 -5 8 -10 11 -10 2 0 4 5 4 10 0 6 -5 10 -11 10 -5 0
-7 -4 -4 -10z"/>
<path d="M3233 2125 c0 -8 4 -12 9 -9 5 3 6 10 3 15 -9 13 -12 11 -12 -6z"/>
<path d="M3315 2131 c-3 -5 -2 -12 3 -15 5 -3 9 1 9 9 0 17 -3 19 -12 6z"/>
<path d="M3435 2131 c-3 -5 -2 -12 3 -15 5 -3 9 1 9 9 0 17 -3 19 -12 6z"/>
<path d="M3815 2111 c-3 -5 -2 -12 3 -15 5 -3 9 1 9 9 0 17 -3 19 -12 6z"/>
<path d="M2570 2099 c0 -5 5 -7 10 -4 6 3 10 8 10 11 0 2 -4 4 -10 4 -5 0 -10
-5 -10 -11z"/>
<path d="M2895 2100 c3 -5 8 -10 11 -10 2 0 4 5 4 10 0 6 -5 10 -11 10 -5 0
-7 -4 -4 -10z"/>
<path d="M2930 2100 c0 -5 5 -10 11 -10 5 0 7 5 4 10 -3 6 -8 10 -11 10 -2 0
-4 -4 -4 -10z"/>
<path d="M2970 2100 c0 -5 5 -10 11 -10 5 0 7 5 4 10 -3 6 -8 10 -11 10 -2 0
-4 -4 -4 -10z"/>
<path d="M3610 2099 c0 -5 5 -7 10 -4 6 3 10 8 10 11 0 2 -4 4 -10 4 -5 0 -10
-5 -10 -11z"/>
<path d="M3690 2099 c0 -5 5 -7 10 -4 6 3 10 8 10 11 0 2 -4 4 -10 4 -5 0 -10
-5 -10 -11z"/>
<path d="M3735 2100 c3 -5 8 -10 11 -10 2 0 4 5 4 10 0 6 -5 10 -11 10 -5 0
-7 -4 -4 -10z"/>
<path d="M3770 2099 c0 -5 5 -7 10 -4 6 3 10 8 10 11 0 2 -4 4 -10 4 -5 0 -10
-5 -10 -11z"/>
<path d="M2677 2093 c-10 -9 -9 -23 1 -23 5 0 9 7 9 15 0 17 -1 18 -10 8z"/>
<path d="M3119 2098 c-5 -18 -6 -38 -1 -34 7 8 12 36 6 36 -2 0 -4 -1 -5 -2z"/>
<path d="M2819 2088 c-5 -18 -6 -38 -1 -34 7 8 12 36 6 36 -2 0 -4 -1 -5 -2z"/>
<path d="M3226 2082 c-3 -5 1 -9 9 -9 8 0 15 4 15 9 0 4 -4 8 -9 8 -6 0 -12
-4 -15 -8z"/>
<path d="M3273 2075 c0 -8 4 -12 9 -9 4 3 8 9 8 15 0 5 -4 9 -8 9 -5 0 -9 -7
-9 -15z"/>
<path d="M2935 2071 c-3 -5 -2 -12 3 -15 5 -3 9 1 9 9 0 17 -3 19 -12 6z"/>
<path d="M2570 2060 c0 -5 5 -10 11 -10 5 0 7 5 4 10 -3 6 -8 10 -11 10 -2 0
-4 -4 -4 -10z"/>
<path d="M2615 2060 c-3 -5 -1 -10 4 -10 6 0 11 5 11 10 0 6 -2 10 -4 10 -3 0
-8 -4 -11 -10z"/>
<path d="M2850 2060 c0 -5 5 -10 11 -10 5 0 7 5 4 10 -3 6 -8 10 -11 10 -2 0
-4 -4 -4 -10z"/>
<path d="M2895 2060 c-3 -5 -1 -10 4 -10 6 0 11 5 11 10 0 6 -2 10 -4 10 -3 0
-8 -4 -11 -10z"/>
<path d="M3334 2056 c1 -8 5 -18 8 -22 4 -3 5 1 4 10 -1 8 -5 18 -8 22 -4 3
-5 -1 -4 -10z"/>
<path d="M3415 2059 c-3 -4 2 -6 10 -5 21 3 28 13 10 13 -9 0 -18 -4 -20 -8z"/>
<path d="M3534 2062 c4 -3 14 -7 22 -8 9 -1 13 0 10 4 -4 3 -14 7 -22 8 -9 1
-13 0 -10 -4z"/>
<path d="M3739 2068 c-5 -18 -6 -38 -1 -34 7 8 12 36 6 36 -2 0 -4 -1 -5 -2z"/>
<path d="M2673 2035 c0 -8 4 -12 9 -9 5 3 6 10 3 15 -9 13 -12 11 -12 -6z"/>
<path d="M3019 2048 c-5 -18 -6 -38 -1 -34 7 8 12 36 6 36 -2 0 -4 -1 -5 -2z"/>
<path d="M3615 2040 c-3 -5 -1 -10 4 -10 6 0 11 5 11 10 0 6 -2 10 -4 10 -3 0
-8 -4 -11 -10z"/>
<path d="M2536 2022 c-2 -4 -1 -14 4 -22 7 -11 9 -9 7 8 -1 24 -3 26 -11 14z"/>
<path d="M3046 2018 c3 -5 10 -6 15 -3 13 9 11 12 -6 12 -8 0 -12 -4 -9 -9z"/>
<path d="M3199 2013 c-12 -16 -12 -17 2 -6 9 7 20 9 24 5 5 -4 5 -1 1 6 -9 16
-11 15 -27 -5z"/>
<path d="M2694 1996 c1 -8 5 -18 8 -22 4 -3 5 1 4 10 -1 8 -5 18 -8 22 -4 3
-5 -1 -4 -10z"/>
<path d="M2746 2002 c-3 -5 1 -9 9 -9 8 0 15 4 15 9 0 4 -4 8 -9 8 -6 0 -12
-4 -15 -8z"/>
<path d="M3700 2000 c-8 -5 -10 -10 -5 -10 6 0 17 5 25 10 8 5 11 10 5 10 -5
0 -17 -5 -25 -10z"/>
<path d="M2456 1978 c3 -5 10 -6 15 -3 13 9 11 12 -6 12 -8 0 -12 -4 -9 -9z"/>
<path d="M3076 1973 c-6 -14 -5 -15 5 -6 7 7 10 15 7 18 -3 3 -9 -2 -12 -12z"/>
<path d="M3650 1959 c0 -5 5 -7 10 -4 6 3 10 8 10 11 0 2 -4 4 -10 4 -5 0 -10
-5 -10 -11z"/>
<path d="M2795 1949 c-4 -6 -5 -12 -2 -15 2 -3 7 2 10 11 7 17 1 20 -8 4z"/>
<path d="M2915 1949 c-4 -6 -5 -12 -2 -15 2 -3 7 2 10 11 7 17 1 20 -8 4z"/>
<path d="M3835 1920 c3 -5 8 -10 11 -10 2 0 4 5 4 10 0 6 -5 10 -11 10 -5 0
-7 -4 -4 -10z"/>
<path d="M3595 1881 c-3 -5 -2 -12 3 -15 5 -3 9 1 9 9 0 17 -3 19 -12 6z"/>
<path d="M3953 1875 c0 -8 4 -12 9 -9 5 3 6 10 3 15 -9 13 -12 11 -12 -6z"/>
<path d="M2795 1841 c-3 -5 -2 -12 3 -15 5 -3 9 1 9 9 0 17 -3 19 -12 6z"/>
<path d="M2625 1720 c-3 -6 1 -7 9 -4 18 7 21 14 7 14 -6 0 -13 -4 -16 -10z"/>
<path d="M2540 1686 c0 -2 8 -10 18 -17 15 -13 16 -12 3 4 -13 16 -21 21 -21
13z"/>
<path d="M2435 1651 c-3 -5 -2 -12 3 -15 5 -3 9 1 9 9 0 17 -3 19 -12 6z"/>
<path d="M2513 1395 c0 -8 4 -12 9 -9 5 3 6 10 3 15 -9 13 -12 11 -12 -6z"/>
</g>
</svg>
